<svg width="63" height="61" viewBox="0 0 63 61" fill="none" xmlns="http://www.w3.org/2000/svg">
<path d="M49.4928 11.5739C50.8126 21.7875 49.55 32.2559 42.6329 40.5136C36.3895 47.9671 27.3063 50.04 22.1642 40.2595C19.7301 35.6297 19.9388 28.5131 24.3273 25.0669C29.2164 21.2274 33.292 28.2851 33.4372 32.4082C33.7765 42.0381 26.6335 51.7183 16.1456 52.9333C3.72541 54.3722 4.23876 41.5197 4.31826 41.5511" stroke="black" stroke-width="6.79294" stroke-miterlimit="1.5" stroke-linecap="round" stroke-linejoin="round"/>
<path d="M58.7578 18.3416C57.6405 18.1199 56.7376 17.4609 55.803 16.8495C52.7338 14.8424 50.0699 11.6995 49.2072 8.052C48.8586 12.0973 47.0426 17.2317 43.2178 19.1223" stroke="black" stroke-width="6.79294" stroke-miterlimit="1.5" stroke-linecap="round" stroke-linejoin="round"/>
</svg>
