<svg width="42" height="42" viewBox="0 0 42 42" fill="none" xmlns="http://www.w3.org/2000/svg">
<g clip-path="url(#clip0_16_229)">
<path d="M36.75 0H5.25C2.3505 0 0 2.3505 0 5.25V36.75C0 39.6495 2.3505 42 5.25 42H36.75C39.6495 42 42 39.6495 42 36.75V5.25C42 2.3505 39.6495 0 36.75 0Z" fill="#282828"/>
<path d="M29.5911 4.60295C29.4993 4.65597 29.4847 4.68351 29.5091 4.64388C28.6179 6.14499 28.5949 8.12511 28.1968 9.89285C28.1972 9.90649 28.1972 9.92017 28.1968 9.93382C28.1903 9.95967 28.2034 9.99011 28.1968 10.0158C28.0036 11.9136 27.378 13.849 27.8277 15.6749C27.8454 15.7144 27.8591 15.7556 27.8687 15.7978C27.8726 15.8111 27.8647 15.8256 27.8687 15.8387C27.8752 15.8492 27.8621 15.8699 27.8687 15.8797C27.8766 15.8915 27.9019 15.8692 27.9096 15.8797C28.0056 16.0117 28.1227 16.1105 28.1967 16.1258C28.2496 16.1363 28.3413 16.131 28.5248 16.0028C28.7233 15.8646 28.8355 15.5877 28.8938 15.2236C28.9164 15.1797 28.9439 15.1384 28.9758 15.1007C28.9754 15.087 28.9754 15.0734 28.9758 15.0598C28.9854 15.0175 28.9991 14.9763 29.0168 14.9368C29.0298 14.9225 29.0434 14.9089 29.0577 14.8958C29.8429 11.7636 30.3742 8.4766 30.1649 5.25908C30.1381 5.09913 30.1087 4.9877 29.9599 4.80799C29.861 4.68897 29.78 4.62062 29.7548 4.60295C29.7296 4.58524 29.764 4.59771 29.6728 4.60295C29.6592 4.60338 29.6455 4.60338 29.6319 4.60295C29.5982 4.60689 29.6112 4.60215 29.591 4.60295H29.5911Z" fill="#282828"/>
<path d="M36.82 6.13785C35.4601 6.79876 34.7639 8.37571 33.8265 9.6645C33.8172 9.70682 33.8035 9.74802 33.7856 9.78744C33.774 9.81577 33.7603 9.84318 33.7446 9.86946C32.5561 11.9758 31.0398 14.0783 30.8741 16.5127C30.8731 16.5265 30.8749 16.54 30.8741 16.5537C30.8922 16.921 31.1025 17.1205 31.3251 17.1688C31.5437 17.216 31.9478 17.0908 32.1043 16.8407C32.1173 16.8264 32.131 16.8127 32.1453 16.7997C32.1448 16.7861 32.1448 16.7725 32.1453 16.7588C32.1448 16.7452 32.1448 16.7315 32.1453 16.7179C34.3052 13.7499 35.93 10.2552 37.2712 6.83506C37.2707 6.82142 37.2707 6.80774 37.2712 6.79409C37.364 6.56953 37.3947 6.51205 37.3121 6.34301C37.2878 6.29301 37.0334 6.12162 36.902 6.13797C36.8807 6.14716 36.841 6.12747 36.82 6.13797V6.13785Z" fill="#282828"/>
<path d="M15.6546 7.11692C15.4351 7.15773 15.1086 7.3543 14.8755 7.44498C14.0509 7.75778 13.596 8.46457 13.3992 9.29032C13.1988 10.1352 13.2656 11.0761 13.3992 12.0378C13.5328 12.9977 13.724 13.9885 13.9323 14.7443C14.1113 15.3983 14.2395 15.7164 14.3013 15.9335V16.0976C14.3013 16.1691 14.2671 16.1632 14.2193 16.2205C14.1931 16.2348 14.2456 16.3025 14.2193 16.3025C14.1599 16.3479 14.0882 16.3845 14.0143 16.3845C13.8686 16.3937 13.7548 16.3407 13.6042 16.3025C13.5016 16.2788 13.3681 16.1966 13.3992 16.2205C13.3515 16.1919 13.2663 16.1886 13.2352 16.1385C13.2352 16.1577 13.2639 16.1573 13.2352 16.0976C13.2018 16.0355 13.1647 15.8792 13.1122 15.7695C12.9952 15.5209 12.9034 15.2329 12.7431 14.8673C12.4232 14.1394 12.0115 13.2453 11.5539 12.4069C11.0946 11.5652 10.5537 10.8013 9.95459 10.2745C9.65517 10.0113 9.28558 9.74757 8.9294 9.65939C8.58561 9.57344 8.17766 9.64627 7.8222 9.82342C6.90367 10.333 6.38373 11.1674 6.18189 12.0378C5.97907 12.9216 6.07497 13.9393 6.22286 14.8263C6.37317 15.7115 6.60589 16.4414 6.75596 17.0407C6.82026 17.2934 6.8986 17.5294 6.91999 17.6559C6.91999 17.7812 6.86894 18.1083 6.83798 18.23C6.68289 18.767 6.30574 19.6652 6.30488 19.6652C6.30488 19.6652 -0.850698 38.6703 14.5064 37.3395C14.6329 37.3303 14.9202 37.2575 15.0395 37.2575C18.0554 36.6503 20.9092 35.7383 23.446 34.715C23.9444 34.4762 24.5982 34.2389 25.3324 33.8949C26.8006 33.207 28.6451 32.3256 30.4173 31.3524C32.1902 30.3785 33.8351 29.3407 35.0922 28.2358C36.3514 27.1292 37.2705 25.9167 37.1015 24.7092C36.8343 22.7625 35.5416 21.3159 33.8209 20.1983C32.0939 19.0767 29.9403 18.3026 27.7928 17.7379C25.6463 17.1734 23.562 16.7143 21.9698 16.4666C21.1739 16.3426 20.428 16.3065 19.9604 16.2206C19.822 16.1968 19.7481 16.1625 19.6733 16.1386C19.6331 16.1333 19.6295 16.1214 19.5913 16.0976C19.5437 16.069 19.456 16.0657 19.4273 16.0156C19.401 15.968 19.4273 15.9064 19.4273 15.8516C19.4273 15.8302 19.4271 15.7982 19.4273 15.7696V14.5803C19.401 13.5988 19.3433 12.3029 19.1402 11.0947C18.935 9.88146 18.6186 8.72112 17.951 7.93711C17.5543 7.47068 16.9926 7.16459 16.3107 7.11696C16.1055 7.09308 15.8762 7.07641 15.6546 7.11696V7.11692Z" fill="#282828"/>
<path d="M33.4358 8.30679C33.4358 10.3574 31.7735 12.0198 29.7228 12.0198C27.6722 12.0198 26.0098 10.3574 26.0098 8.30679C26.0098 6.25614 27.6722 4.59375 29.7228 4.59375C31.7735 4.59375 33.4358 6.25614 33.4358 8.30679Z" fill="white"/>
<path d="M5.94778 37.3807C5.92785 37.3282 5.91459 36.0415 5.91833 34.5733L5.92511 31.8482H7.39585H8.85502C8.82791 27.9447 8.88214 23.9855 8.85502 20.082L7.25984 20.0713L5.73444 20.0606L5.68167 17.2588L5.62891 14.4571H7.23142H8.85502V12.7887C8.85502 8.88117 11.1866 6.51789 15.2242 5.50638C17.6985 5.00138 19.0398 5.15197 21.5605 5.20935L21.613 8.21248L21.6655 11.2156H19.9923C17.4108 11.2156 16.6562 11.8403 16.65 13.6464V14.4568C22.3067 14.4568 27.821 14.4568 33.4777 14.4568C33.4777 20.2406 33.4777 26.0644 33.4777 31.8482H36.2899C36.2899 31.8482 36.2816 31.8313 36.2899 32.2373C36.3341 34.399 36.2691 34.7945 36.2899 37.3807C36.2278 37.4427 33.1725 37.3713 29.5596 37.3807H22.9906V34.6313V31.8482C23.9439 31.8482 24.8973 31.8482 25.8507 31.8482C25.8507 27.9182 25.8507 23.9935 25.8507 20.0634C23.1927 20.0944 19.0217 20.0789 16.65 20.0634C16.4687 24.5189 16.5446 26.5274 16.65 31.8482C17.7147 31.8887 18.7796 31.8131 19.8444 31.8482L19.8969 34.6685L19.9494 37.3807H12.9667C9.12624 37.3807 5.96773 37.4331 5.94778 37.3807Z" fill="white"/>
</g>
<defs>
<clipPath id="clip0_16_229">
<rect width="42" height="42" fill="white"/>
</clipPath>
</defs>
</svg>
