<svg width="36" height="35" viewBox="0 0 36 35" fill="none" xmlns="http://www.w3.org/2000/svg">
<path fill-rule="evenodd" clip-rule="evenodd" d="M18.3357 1.09375C9.09774 1.09375 1.61542 8.5987 1.61542 17.8646C1.61542 25.2857 6.40159 31.5538 13.0479 33.7759C13.8839 33.9227 14.1974 33.4195 14.1974 32.9793C14.1974 32.581 14.1765 31.2603 14.1765 29.8557C9.97555 30.6314 8.88874 28.8285 8.55433 27.8852C8.36623 27.403 7.55111 25.9146 6.8405 25.5163C6.25529 25.2018 5.41928 24.4262 6.8196 24.4052C8.13632 24.3842 9.07684 25.6211 9.39034 26.1242C10.8952 28.6608 13.2987 27.948 14.2601 27.5078C14.4064 26.4177 14.8453 25.684 15.326 25.2647C11.6058 24.8454 7.71832 23.399 7.71832 16.9841C7.71832 15.1603 8.36623 13.6509 9.43214 12.477C9.26494 12.0577 8.67973 10.3387 9.59935 8.03268C9.59935 8.03268 10.9997 7.59245 14.1974 9.75169C15.535 9.37435 16.9563 9.18568 18.3775 9.18568C19.7987 9.18568 21.2199 9.37435 22.5576 9.75169C25.7553 7.57148 27.1556 8.03268 27.1556 8.03268C28.0752 10.3387 27.49 12.0577 27.3228 12.477C28.3888 13.6509 29.0367 15.1393 29.0367 16.9841C29.0367 23.4199 25.1283 24.8454 21.408 25.2647C22.0141 25.7888 22.5367 26.7951 22.5367 28.3673C22.5367 30.6104 22.5158 32.4133 22.5158 32.9793C22.5158 33.4195 22.8293 33.9436 23.6653 33.7759C30.2698 31.5538 35.056 25.2647 35.056 17.8646C35.056 8.5987 27.5736 1.09375 18.3357 1.09375Z" fill="#24292E"/>
</svg>
