<svg width="32" height="31" viewBox="0 0 32 31" fill="none" xmlns="http://www.w3.org/2000/svg">
<g clip-path="url(#clip0_9_318)">
<path d="M31.1423 5.0915C30.6918 1.34972 27.5783 -0.152265 24.6936 0.0205401C22.9818 0.122123 21.2863 0.176207 19.2674 0.226294C17.4382 0.271641 15.5624 0.310585 13.9075 0.344916C11.5328 0.394362 9.07727 0.445585 6.63895 0.513734C3.83963 0.592131 1.58244 2.41573 1.14836 4.94851C0.974066 5.96511 0.968993 6.99091 0.979759 8.1301C1.0113 11.4568 1.05943 14.8184 1.10643 18.0693L1.1115 18.4213C1.13007 19.7291 1.1483 21.0369 1.1662 22.3448C1.16924 22.5652 1.17684 22.786 1.1847 23.0069L1.18534 23.0245C1.21719 23.5718 1.21182 24.1206 1.16926 24.667C1.01866 26.1265 1.57105 27.6825 2.64708 28.8292C3.84319 30.1039 5.53834 30.752 7.42161 30.6549C9.47664 30.5473 11.5728 30.5678 13.6 30.5875L13.7468 30.589C16.1524 30.6122 18.5989 30.6741 20.9679 30.7343L22.1624 30.7645C22.3635 30.7767 22.5631 30.8072 22.7587 30.856C22.8613 30.878 22.9639 30.8998 23.0661 30.9176C23.0808 30.9202 23.0958 30.9216 23.1106 30.9216H24.4068C24.4195 30.9215 24.4322 30.9206 24.4448 30.9188C24.7038 30.8803 24.9641 30.8455 25.2235 30.8112L25.243 30.8086C25.8246 30.7317 26.4261 30.6526 27.0123 30.5238C29.541 29.9683 31.6835 27.3159 31.6906 24.732C31.6923 24.1232 31.6945 23.5143 31.6969 22.9053L31.698 22.5995C31.7107 19.2617 31.7246 15.8104 31.6537 12.4119C31.6019 9.94043 31.4299 7.47696 31.1423 5.0915ZM29.7364 24.552C29.7441 26.5476 28.0228 28.4161 25.8177 28.8056C24.1281 29.1041 22.401 29.0027 20.7305 28.9049C20.1105 28.8685 19.4693 28.8309 18.8322 28.8138C18.1089 28.7946 17.3722 28.7568 16.6558 28.7201L16.5925 28.7167C16.2842 28.701 15.9756 28.6852 15.6696 28.6711H15.6554C14.8759 28.6711 14.0964 28.6702 13.3168 28.6682C12.412 28.6667 11.4928 28.6651 10.5698 28.6651C9.35567 28.6651 8.35756 28.6677 7.42783 28.6733H7.38691C6.02323 28.6733 4.89832 28.2643 4.13376 27.4901C3.3388 26.6851 2.92397 25.4828 2.93449 24.0127C2.95906 20.5562 2.94423 17.0568 2.92979 13.6724C2.92168 11.7402 2.91333 9.74226 2.91232 7.76813C2.89328 6.63118 3.14755 5.50656 3.65329 4.49097C4.22683 3.37548 5.25134 2.78353 6.87722 2.62815C9.15873 2.41038 10.9997 2.29175 12.6708 2.25498C17.4952 2.14815 21.2081 2.11036 24.709 2.13226C27.2627 2.14828 28.7376 3.36317 29.2183 5.84714C29.7503 8.59999 29.7427 11.4295 29.7347 14.1672L29.7339 14.3994C29.7232 18.282 29.7238 21.5078 29.7361 24.552H29.7364Z" fill="black"/>
<path d="M16.9882 8.17257C15.3876 8.14234 13.9633 8.47131 12.7527 9.14614C11.2948 9.95829 9.74187 11.0548 9.27714 13.0266C8.67953 15.5616 8.95135 18.0006 10.085 20.2759C10.8967 21.9053 12.1691 22.9079 13.7645 23.1751C14.7192 23.3437 15.6859 23.4322 16.6551 23.4399C16.9591 23.4399 17.2607 23.4292 17.5502 23.408C19.6983 23.2514 21.4047 22.3804 22.6218 20.8192C24.5065 18.4015 24.8342 15.6336 23.5961 12.5921C22.399 9.65084 20.109 8.12197 16.9882 8.17257ZM22.2271 15.9446C22.2364 19.2496 20.0452 21.4567 16.6444 21.5664C15.7793 21.5812 14.9151 21.5049 14.0655 21.3387C12.9782 21.1413 12.1528 20.4796 11.6118 19.3719C10.7096 17.5235 10.4907 15.6131 10.961 13.6935C11.3234 12.2145 12.3913 11.1297 14.2256 10.3771C14.9072 10.1 15.6357 9.95921 16.3703 9.96264C17.0067 9.96568 17.6395 10.0599 18.2498 10.2426C20.6581 10.9513 22.2193 13.1894 22.2271 15.9446Z" fill="black"/>
<path d="M25.2322 4.95432H25.1959C24.8398 4.96334 24.5007 5.11015 24.2485 5.36451C23.9965 5.61886 23.8503 5.9614 23.8405 6.32143C23.8317 6.49691 23.8581 6.67236 23.9183 6.83721C23.9785 7.00207 24.0709 7.1529 24.1903 7.28061C24.3148 7.40883 24.4639 7.51015 24.6283 7.5784C24.7928 7.64667 24.9691 7.68045 25.147 7.67773C25.4976 7.66628 25.8305 7.51893 26.0766 7.26616C26.3228 7.01341 26.4634 6.6746 26.4695 6.31987C26.4809 5.61199 25.9027 4.97405 25.2322 4.95432Z" fill="black"/>
</g>
<defs>
<clipPath id="clip0_9_318">
<rect width="30.9065" height="31" fill="white" transform="translate(0.879395)"/>
</clipPath>
</defs>
</svg>
