<svg width="33" height="32" viewBox="0 0 33 32" fill="none" xmlns="http://www.w3.org/2000/svg">
<g clip-path="url(#clip0_9_324)">
<path d="M23.1178 10.8051C21.5767 9.29321 19.5949 9.13005 17.9457 10.3795C17.2975 10.8706 16.674 11.5599 16.0399 12.4865C15.2324 13.6674 15.024 15.1071 14.8402 16.3769C14.5149 18.6235 14.7641 20.8543 15.005 23.0108C15.0407 23.3295 15.1227 24.0624 15.8336 24.0623C15.8563 24.0623 15.8799 24.0617 15.904 24.0601C16.6101 24.0145 16.6127 23.4062 16.6144 23.0035C16.6144 22.9648 16.6144 22.927 16.6155 22.8903C16.6244 22.4074 16.6127 21.917 16.6013 21.4429C16.5853 20.7655 16.5684 20.0651 16.6126 19.3829C16.6946 17.952 16.8613 16.5273 17.1118 15.1163C17.3296 13.9361 17.9825 12.8824 18.9395 12.1665C19.9566 11.3873 20.8645 11.4794 21.7162 12.4471C22.361 13.1738 22.7909 14.0676 22.9573 15.0276C23.1461 16.1432 23.2762 17.2896 23.4019 18.3987C23.4509 18.8309 23.5 19.2634 23.5524 19.6949L23.5299 19.6979C23.4992 19.7021 23.4708 19.7168 23.4496 19.7395C23.4284 19.7623 23.4156 19.7917 23.4135 19.8228C23.4002 20.0185 23.3865 20.2141 23.3723 20.4098C23.3387 20.8809 23.304 21.3681 23.2795 21.8484L23.2765 21.9066C23.2479 22.2546 23.2514 22.6045 23.2867 22.9519C23.3689 23.5665 23.7983 24.0083 24.3552 24.0513C24.8913 24.0925 25.3896 23.7268 25.5947 23.1416C25.6413 23.0029 25.6702 22.8588 25.6809 22.7128C25.8853 20.3723 26.0018 17.292 25.0808 14.2213C24.6548 12.8009 24.0125 11.6831 23.1178 10.8051Z" fill="black"/>
<path d="M10.3488 22.7183C10.3573 23.1382 10.4611 23.5507 10.6524 23.9242C10.7724 24.1576 11.1713 24.2789 11.4178 24.2789C11.4258 24.2789 11.4335 24.2789 11.4412 24.2789C11.6727 24.2714 11.9586 23.9909 12.0217 23.7751C12.1185 23.4174 12.1578 23.0466 12.138 22.6764C12.0596 20.5102 11.9692 18.3081 11.8821 16.1786L11.7086 11.9195C11.6955 11.5952 11.6708 10.9912 10.9416 10.9307C10.9177 10.929 10.8936 10.9335 10.8719 10.9438C10.3118 11.2173 10.3295 11.7319 10.3437 12.1453C10.3462 12.2161 10.3487 12.2864 10.3484 12.355C10.3382 15.1942 10.3285 18.9381 10.3488 22.7183Z" fill="black"/>
<path d="M10.9813 6.73437C10.8928 6.66577 10.8013 6.5949 10.7209 6.52116C10.7022 6.5039 10.6791 6.49235 10.6541 6.48786C10.6292 6.48335 10.6035 6.4861 10.5801 6.49576C9.69434 6.85671 9.63785 7.47784 9.74638 7.93532C9.79975 8.11826 9.89112 8.28772 10.0144 8.43243C10.1377 8.57713 10.2901 8.69379 10.4616 8.7747C10.5126 8.79338 10.5666 8.80234 10.6208 8.80106C10.9021 8.80106 11.2816 8.60431 11.4047 8.40348C11.4985 8.23881 11.5566 8.056 11.5751 7.8671C11.5937 7.67819 11.5724 7.48749 11.5126 7.30749C11.4162 7.07164 11.1951 6.90043 10.9813 6.73437Z" fill="black"/>
<path d="M32.1011 5.3421C31.636 1.49552 28.422 -0.0485102 25.4443 0.129136C23.6772 0.233564 21.9271 0.289261 19.843 0.340619C17.9549 0.387237 16.0185 0.427305 14.3103 0.462597C11.8589 0.513429 9.32405 0.566086 6.80721 0.636144C3.91758 0.716737 1.58759 2.59145 1.1395 5.1953C0.959587 6.24024 0.95435 7.29479 0.965464 8.46588C0.998021 11.8859 1.04771 15.3416 1.09622 18.6834L1.10158 19.0453C1.12084 20.3897 1.13966 21.7342 1.15805 23.0787C1.16119 23.3052 1.16903 23.5322 1.17714 23.7593L1.17781 23.7774C1.21069 24.34 1.20514 24.9042 1.16121 25.4659C1.00574 26.9662 1.57595 28.5658 2.6867 29.7447C3.92139 31.0551 5.67122 31.7213 7.61524 31.6215C9.73656 31.5109 11.9004 31.5321 13.9929 31.5524L14.1445 31.5538C16.6277 31.5778 19.1531 31.6414 21.5985 31.7033L22.8315 31.7342C23.0392 31.7468 23.2452 31.7781 23.4471 31.8283C23.5529 31.8509 23.6589 31.8734 23.7644 31.8917C23.7796 31.8944 23.7949 31.8957 23.8103 31.8957H25.1483C25.1614 31.8957 25.1746 31.8946 25.1875 31.8928C25.4549 31.8533 25.7236 31.8176 25.9914 31.7823L26.0115 31.7797C26.6118 31.7007 27.2328 31.6192 27.8379 31.4868C30.4482 30.9157 32.6598 28.1891 32.6671 25.533C32.6689 24.9069 32.6711 24.2809 32.6736 23.6548L32.6748 23.3406C32.6879 19.9094 32.7023 16.3612 32.629 12.8675C32.5754 10.3263 32.3979 7.79438 32.1011 5.3421ZM30.6497 25.3477C30.6578 27.3992 28.881 29.32 26.6048 29.7205C24.8607 30.0273 23.0779 29.923 21.3535 29.8225C20.7135 29.7851 20.0516 29.7464 19.3939 29.7289C18.6472 29.7092 17.8869 29.6703 17.1473 29.6325L17.082 29.6292C16.7637 29.613 16.4452 29.5968 16.1293 29.5823H16.1147C15.31 29.5823 14.5052 29.5813 13.7005 29.5793C12.7666 29.5777 11.8183 29.5762 10.865 29.5762C9.6117 29.5762 8.58137 29.5788 7.6223 29.5846H7.58007C6.17239 29.5846 5.0112 29.164 4.22198 28.3681C3.40138 27.5405 2.97316 26.3045 2.98401 24.7933C3.00938 21.24 2.99407 17.6427 2.97916 14.1636C2.9708 12.1771 2.96217 10.1231 2.96112 8.09371C2.94148 6.92491 3.20398 5.7688 3.72603 4.72475C4.31808 3.57802 5.37559 2.96949 7.05392 2.80976C9.40903 2.58589 11.3094 2.46393 13.0344 2.42614C18.0145 2.31631 21.8471 2.27747 25.4609 2.29998C28.097 2.31644 29.6189 3.56538 30.1157 6.11827C30.6649 8.94823 30.657 11.857 30.6487 14.6714L30.648 14.91C30.6361 18.9021 30.6368 22.2188 30.6493 25.3477H30.6497Z" fill="black"/>
</g>
<defs>
<clipPath id="clip0_9_324">
<rect width="31.9035" height="32" fill="white" transform="translate(0.882385)"/>
</clipPath>
</defs>
</svg>
