<svg width="57" height="57" viewBox="0 0 57 57" fill="none" xmlns="http://www.w3.org/2000/svg">
<path d="M42.4001 17.7C37.1001 17.7 33.1 21.2 31.5 26.7C29 22.8 27 18.4 25.9 14.6H20.3V29.3C20.3 32.2 17.9 34.6 15 34.6C12.1 34.6 9.70005 32.2 9.70005 29.3V14.7H4.30005V29.4C4.30005 35.5 9.20005 40.4 15.2 40.4C21.2 40.4 26.1 35.5 26.1 29.4V26.9C27.2 29.1 28.6 31.5 30.1 33.6L26.6 49.9H32.3L34.7001 38C36.9001 39.4 39.4001 40.2 42.4001 40.2C48.5 40.2 53.5 35.2 53.5 28.8C53.5 22.7 48.5 17.7 42.4001 17.7ZM42.4001 34.6C40.2001 34.6 37.9 33.6 36.1 32.1L36.7001 29.9V29.8C37.1001 27.4 38.4001 23.4 42.5 23.4C45.6 23.4 48.1 25.9 48.1 29C48 32.1 45.3001 34.6 42.4001 34.6Z" fill="black"/>
</svg>
