<svg width="37" height="29" viewBox="0 0 37 29" fill="none" xmlns="http://www.w3.org/2000/svg">
<g clip-path="url(#clip0_9_311)">
<path d="M36.5486 14.6031C36.5231 14.1031 36.4982 13.6032 36.474 13.1034C36.4309 12.1867 36.3888 11.2699 36.3477 10.3531C36.2682 8.5988 36.1858 6.78478 36.0947 5.00108C36.0552 3.79301 35.5608 2.64427 34.7104 1.78384C33.6753 0.731839 32.3251 0.210566 30.582 0.189833C26.7532 0.14443 22.2207 0.0919932 17.6315 0.0455407C16.8206 0.0372738 15.9962 0.0399079 15.1993 0.0424011C14.7512 0.0437134 14.3027 0.0444453 13.8539 0.0447078C13.2108 0.0440955 12.5676 0.0414226 11.9245 0.0366986C10.4783 0.0285629 8.98388 0.0197689 7.51365 0.0477192C6.20893 0.0725201 5.12769 0.335662 4.20845 0.852413C2.31527 1.91662 1.30716 3.46961 1.21342 5.46824C1.16241 6.55738 1.14481 7.66595 1.12798 8.73763L1.12233 9.09196C1.10165 10.3631 1.08293 11.6342 1.06619 12.9053C1.03425 15.1927 1.00125 17.5581 0.950899 19.8839C0.920134 21.3072 0.991897 22.9781 1.75837 24.5781C2.4148 25.9484 3.27489 26.8382 4.46536 27.3781C5.52112 27.8469 6.63191 28.181 7.77145 28.3723C9.77243 28.7296 11.8255 28.7702 13.8108 28.8093L13.9733 28.8126C14.3063 28.8191 14.6465 28.8455 14.9754 28.8708C15.1303 28.8828 15.2853 28.8947 15.4402 28.9048H15.4489H28.9475C28.9525 28.9048 28.9575 28.9046 28.9626 28.9039C29.2067 28.8764 29.4513 28.8525 29.6958 28.8285C30.2247 28.7768 30.7718 28.7235 31.3054 28.6316C34.1553 28.142 36.0598 26.2737 36.3999 23.6339C36.6761 21.4076 36.7627 19.162 36.6586 16.921C36.6278 16.1481 36.5876 15.3627 36.5486 14.6031ZM34.412 16.8601C34.3904 19.0396 34.2639 21.2348 34.1249 23.4792C34.0005 25.4904 32.2541 26.357 30.7962 26.4879C30.2125 26.5403 29.627 26.5678 29.0561 26.5697L26.5216 26.5789C22.3984 26.594 18.1348 26.6103 13.9419 26.6007C11.566 26.5953 9.24758 26.5431 7.00785 25.969C6.32288 25.7991 5.65971 25.5513 5.03134 25.2305C4.3256 24.8621 3.81798 24.2106 3.47997 23.2388C3.01931 21.8744 2.78913 20.4429 2.79884 19.003C2.78569 17.1659 2.81896 15.2969 2.85039 13.4894L2.87141 12.2528C2.90414 10.2467 2.93808 8.17183 3.00513 6.13383C3.08204 3.79611 4.40475 2.31143 6.72954 1.95319C7.94294 1.76918 9.16865 1.678 10.396 1.68031C10.4405 1.68031 10.4853 1.68031 10.5298 1.68031C12.7066 1.69146 14.9201 1.7459 17.0607 1.79839C17.9409 1.81999 18.821 1.84079 19.701 1.86074C19.7368 1.86127 19.7714 1.8478 19.7974 1.82318C19.8029 1.81796 19.8079 1.8123 19.8124 1.80627C20.7382 1.82936 21.6641 1.85227 22.59 1.87503C25.2024 1.93932 27.9036 2.00626 30.5601 2.08184C31.3472 2.10428 32.1723 2.20514 32.8741 2.78698C33.5677 3.36265 33.9089 3.98232 33.9474 4.73723L33.9737 5.25276C34.0676 7.08121 34.1644 8.97211 34.2382 10.8322C34.2545 11.2461 34.2722 11.6602 34.2908 12.0744C34.3575 13.6445 34.4278 15.2672 34.412 16.8604V16.8601Z" fill="black"/>
<path d="M23.8024 12.487C23.2537 12.0393 22.6922 11.6022 22.2153 11.2337L21.6488 10.7958C20.1599 9.64499 18.6204 8.45468 17.096 7.29678C16.8294 7.10849 16.5365 6.96032 16.2267 6.85704C15.6787 6.65719 15.1355 6.83083 14.8738 7.29011C14.5087 7.931 14.3179 8.47802 14.2906 8.9621C14.2196 10.2178 14.2054 11.4961 14.1917 12.7322C14.1867 13.1764 14.1818 13.6208 14.1742 14.0647C14.1508 14.0748 14.1307 14.0915 14.1164 14.1126C14.1019 14.1336 14.0939 14.1584 14.0929 14.1839L14.051 15.4158C14.0111 16.591 13.9702 17.7662 13.9283 18.9416C13.9099 19.4452 14.0757 19.784 14.4353 19.9774C14.5828 20.0588 14.7485 20.1018 14.917 20.1028C15.1584 20.0957 15.3927 20.0194 15.5917 19.8831C16.3341 19.4117 17.0768 18.9408 17.82 18.4702C19.7526 17.2455 21.751 15.9794 23.7099 14.722C24.176 14.4227 24.4342 14.0574 24.4564 13.6653C24.479 13.2619 24.253 12.8547 23.8024 12.487ZM21.6233 13.6217L15.8848 17.359L16.0319 9.4117C17.1964 10.1971 18.287 11.0483 19.437 11.9466C20.1439 12.4979 20.8726 13.0669 21.6233 13.6217Z" fill="black"/>
</g>
<defs>
<clipPath id="clip0_9_311">
<rect width="35.8915" height="29" fill="white" transform="translate(0.888428)"/>
</clipPath>
</defs>
</svg>
