<svg width="35" height="35" viewBox="0 0 35 35" fill="none" xmlns="http://www.w3.org/2000/svg">
<path d="M0 30.4871C0 32.9798 2.0205 35 4.51292 35H30.4871C32.9798 35 35 32.9795 35 30.4871V4.51292C35 2.02023 32.9795 0 30.4871 0H4.51292C2.02023 0 0 2.0205 0 4.51292V30.4871Z" fill="#563D7C"/>
<path d="M14.5137 15.4818V10.5252H18.8767C19.2922 10.5252 19.6929 10.5599 20.0787 10.6291C20.4645 10.6984 20.8059 10.822 21.1027 11.0001C21.3995 11.1782 21.6369 11.4255 21.815 11.7421C21.9931 12.0587 22.0821 12.4643 22.0821 12.959C22.0821 13.8494 21.815 14.4924 21.2807 14.8882C20.7465 15.2839 20.0639 15.4818 19.2328 15.4818H14.5137ZM9.854 6.9043V28.0957H20.1232C21.073 28.0957 21.998 27.977 22.8983 27.7395C23.7986 27.5021 24.5999 27.1361 25.3024 26.6414C26.0048 26.1467 26.5638 25.5086 26.9793 24.727C27.3948 23.9455 27.6025 23.0205 27.6025 21.952C27.6025 20.6263 27.281 19.4935 26.638 18.5536C25.9949 17.6138 25.0204 16.9559 23.7145 16.5799C24.6642 16.1248 25.3815 15.5411 25.8663 14.8288C26.3511 14.1165 26.5934 13.2261 26.5934 12.1576C26.5934 11.1683 26.4302 10.3373 26.1037 9.66452C25.7772 8.99178 25.3172 8.4526 24.7236 8.04697C24.13 7.64134 23.4177 7.3495 22.5867 7.17142C21.7556 6.99334 20.8356 6.9043 19.8264 6.9043H9.854ZM14.5137 24.4748V18.6575H19.589C20.5981 18.6575 21.4094 18.89 22.0227 19.355C22.6361 19.82 22.9428 20.5966 22.9428 21.6849C22.9428 22.2389 22.8488 22.694 22.6609 23.0501C22.4729 23.4063 22.2206 23.6882 21.904 23.896C21.5874 24.1038 21.2214 24.2522 20.8059 24.3412C20.3903 24.4302 19.955 24.4748 19.5 24.4748H14.5137Z" fill="white"/>
</svg>
