<svg width="43" height="43" viewBox="0 0 43 43" fill="none" xmlns="http://www.w3.org/2000/svg">
<path fill-rule="evenodd" clip-rule="evenodd" d="M21.5 1.34375C10.1162 1.34375 0.895813 10.5641 0.895813 21.9479C0.895813 31.0653 6.79376 38.7661 14.9839 41.4961C16.0141 41.6764 16.4004 41.0583 16.4004 40.5174C16.4004 40.0281 16.3747 38.4055 16.3747 36.6799C11.1979 37.6328 9.85863 35.4179 9.44654 34.2589C9.21475 33.6665 8.21029 31.8379 7.33462 31.3486C6.61347 30.9622 5.58326 30.0093 7.30886 29.9835C8.93144 29.9578 10.0904 31.4773 10.4768 32.0955C12.3311 35.2118 15.293 34.3362 16.4777 33.7953C16.658 32.456 17.1989 31.5546 17.7912 31.0395C13.2068 30.5244 8.41633 28.7473 8.41633 20.8662C8.41633 18.6255 9.21475 16.7711 10.5283 15.3288C10.3222 14.8137 9.60107 12.7018 10.7343 9.86872C10.7343 9.86872 12.4599 9.32786 16.4004 11.9807C18.0488 11.5171 19.8001 11.2853 21.5515 11.2853C23.3028 11.2853 25.0542 11.5171 26.7025 11.9807C30.6431 9.30211 32.3687 9.86872 32.3687 9.86872C33.5019 12.7018 32.7808 14.8137 32.5747 15.3288C33.8882 16.7711 34.6866 18.5997 34.6866 20.8662C34.6866 28.773 29.8704 30.5244 25.286 31.0395C26.0329 31.6834 26.6768 32.9196 26.6768 34.8513C26.6768 37.6071 26.651 39.822 26.651 40.5174C26.651 41.0583 27.0374 41.7022 28.0676 41.4961C36.2062 38.7661 42.1041 31.0395 42.1041 21.9479C42.1041 10.5641 32.8838 1.34375 21.5 1.34375Z" fill="#24292E"/>
</svg>
