<svg width="41" height="41" viewBox="0 0 41 41" fill="none" xmlns="http://www.w3.org/2000/svg">
<path d="M0 0H41V41H0V0Z" fill="#F7DF1E"/>
<path d="M10.7804 34.2626L13.918 32.3638C14.5233 33.437 15.0739 34.3451 16.3947 34.3451C17.6608 34.3451 18.459 33.8498 18.459 31.9235V18.823H22.3119V31.9779C22.3119 35.9686 19.9727 37.785 16.5599 37.785C13.4777 37.785 11.6885 36.1887 10.7803 34.2623" fill="black"/>
<path d="M24.4048 33.8497L27.542 32.0333C28.3679 33.382 29.4412 34.3727 31.3401 34.3727C32.9366 34.3727 33.9546 33.5745 33.9546 32.4736C33.9546 31.1526 32.9088 30.6846 31.1474 29.9143L30.1844 29.5012C27.4046 28.318 25.5605 26.8318 25.5605 23.6943C25.5605 20.8045 27.7622 18.6027 31.2026 18.6027C33.652 18.6027 35.4134 19.4559 36.6793 21.6852L33.6794 23.6116C33.0188 22.4283 32.3035 21.9605 31.2027 21.9605C30.0742 21.9605 29.3586 22.676 29.3586 23.6116C29.3586 24.7676 30.0742 25.2355 31.7254 25.9512L32.6885 26.364C35.9637 27.7677 37.8077 29.1986 37.8077 32.4186C37.8077 35.8865 35.0831 37.7853 31.4228 37.7853C27.8449 37.7853 25.5331 36.0791 24.4049 33.8497" fill="black"/>
</svg>
