<svg width="37" height="35" viewBox="0 0 37 35" fill="none" xmlns="http://www.w3.org/2000/svg">
<path d="M25.6371 24.3469C27.0025 24.2067 28.0384 23.0384 27.9913 21.6365C27.9442 20.2346 26.7671 19.113 25.3546 19.113H25.2604C23.8008 19.1598 22.6708 20.3748 22.7179 21.8234C22.765 22.5244 23.0475 23.1319 23.4712 23.5525C21.8704 26.6835 19.422 28.9733 15.7494 30.8893C13.254 32.1977 10.6644 32.6651 8.07474 32.3379C5.95596 32.0575 4.30801 31.1229 3.27216 29.5808C1.76547 27.291 1.62422 24.8142 2.89549 22.3375C3.79009 20.5617 5.20261 19.2532 6.09721 18.599C5.90887 17.9915 5.62637 16.9634 5.48512 16.2157C-1.34207 21.1225 -0.635812 27.7583 1.43589 30.8893C2.98966 33.2258 6.14429 34.6745 9.62851 34.6745C10.5702 34.6745 11.5119 34.581 12.4536 34.3474C18.4803 33.1791 23.0475 29.6275 25.6371 24.3469ZM33.9239 18.5523C30.3455 14.3932 25.0721 12.1034 19.0453 12.1034H18.292C17.8682 11.2622 16.9736 10.7014 15.9849 10.7014H15.8907C14.4311 10.7482 13.3011 11.9632 13.3482 13.4118C13.3952 14.8138 14.5723 15.9353 15.9849 15.9353H16.079C17.1149 15.8886 18.0095 15.2343 18.3861 14.3465H19.2337C22.812 14.3465 26.2021 15.3745 29.2626 17.384C31.6168 18.9261 33.3118 20.9355 34.2535 23.3656C35.0539 25.3283 35.0068 27.2442 34.1593 28.8798C32.841 31.3566 30.628 32.7118 27.7088 32.7118C25.8254 32.7118 24.0362 32.151 23.0946 31.7304C22.5766 32.1977 21.6349 32.9454 20.9758 33.4127C23.0004 34.3474 25.0721 34.8614 27.0496 34.8614C31.5697 34.8614 34.9127 32.3847 36.1839 29.9079C37.5494 27.1975 37.4552 22.5244 33.9239 18.5523ZM10.0052 25.1413C10.0523 26.5433 11.2294 27.6648 12.6419 27.6648H12.7361C14.1957 27.6181 15.3257 26.4031 15.2786 24.9544C15.2315 23.5525 14.0544 22.4309 12.6419 22.4309H12.5477C12.4536 22.4309 12.3123 22.4309 12.2181 22.4777C10.2877 19.2999 9.48726 15.8418 9.76976 12.1034C9.9581 9.29949 10.8998 6.86947 12.5477 4.86004C13.9132 3.13098 16.5499 2.28982 18.3391 2.24309C23.33 2.14963 25.4488 8.31814 25.59 10.7949C26.2021 10.9351 27.2379 11.2622 27.9442 11.4959C27.3792 3.92541 22.6708 0 18.1507 0C13.9132 0 10.0052 3.03752 8.45141 7.52371C6.28554 13.5053 7.69807 19.2532 10.3348 23.7861C10.0994 24.1133 9.9581 24.6273 10.0052 25.1413Z" fill="#764ABC"/>
</svg>
