<svg width="49" height="37" viewBox="0 0 49 37" fill="none" xmlns="http://www.w3.org/2000/svg">
<path d="M42.1632 21.2969C40.4585 21.3059 38.9769 21.7193 37.7363 22.3303C37.2811 21.4227 36.8259 20.614 36.7455 20.0209C36.6563 19.329 36.5492 18.9067 36.6563 18.0799C36.7634 17.2532 37.2454 16.0761 37.2364 15.9862C37.2275 15.8963 37.1293 15.474 36.1475 15.465C35.1658 15.456 34.3179 15.6537 34.2197 15.9143C34.1215 16.1749 33.9341 16.768 33.8091 17.379C33.6395 18.2776 31.8455 21.4856 30.8191 23.166C30.4889 22.5101 30.2033 21.9349 30.1408 21.4767C30.0516 20.7847 29.9445 20.3624 30.0516 19.5357C30.1587 18.709 30.6406 17.5318 30.6317 17.4419C30.6228 17.3521 30.5246 16.9297 29.5428 16.9207C28.561 16.9118 27.7131 17.1094 27.6149 17.37C27.5168 17.6306 27.4097 18.2417 27.2044 18.8348C26.9991 19.4278 24.616 24.7835 23.9913 26.1674C23.6699 26.8773 23.3933 27.4434 23.1969 27.8298C23.1969 27.8298 23.188 27.8567 23.1612 27.9017C22.9916 28.2342 22.8934 28.4139 22.8934 28.4139C22.8934 28.4139 22.8934 28.4139 22.8934 28.4229C22.7596 28.6655 22.6168 28.8901 22.5454 28.8901C22.4918 28.8901 22.3936 28.2431 22.5632 27.3625C22.9202 25.5024 23.7681 22.6089 23.7592 22.5101C23.7592 22.4561 23.9199 21.9529 23.2058 21.6923C22.5097 21.4317 22.2597 21.8631 22.1973 21.8631C22.1348 21.8631 22.0902 22.0158 22.0902 22.0158C22.0902 22.0158 22.8667 18.7629 20.6086 18.7629C19.1984 18.7629 17.2526 20.3175 16.2887 21.7193C15.6818 22.0518 14.3876 22.7617 13.0042 23.5255C12.4776 23.822 11.9332 24.1186 11.4244 24.3971C11.3887 24.3612 11.353 24.3162 11.3173 24.2803C8.58616 21.3419 3.53443 19.2661 3.74864 15.3212C3.82896 13.8835 4.31986 10.1093 13.4505 5.52645C20.9656 1.79724 26.9455 2.83064 27.9809 5.12207C29.4625 8.39299 24.7767 14.4676 17.0117 15.3482C14.0485 15.6807 12.4954 14.5305 12.1027 14.0991C11.6922 13.6498 11.6297 13.6229 11.478 13.7127C11.2281 13.8475 11.3887 14.2519 11.478 14.4855C11.71 15.0966 12.665 16.1749 14.2805 16.7051C15.7086 17.1723 19.1805 17.4329 23.3843 15.7975C28.088 13.9643 31.7652 8.86925 30.6853 4.60088C29.6053 0.269615 22.465 -1.15916 15.7086 1.25808C11.6922 2.69584 7.33661 4.96033 4.20383 7.90774C0.481968 11.4123 -0.107103 14.4586 0.133881 15.7346C0.999637 20.2635 7.20273 23.211 9.68397 25.3946C9.55902 25.4665 9.44299 25.5294 9.34481 25.5833C8.10419 26.2033 3.37377 28.6924 2.19563 31.3254C0.856832 34.3087 2.40984 36.4474 3.43625 36.7349C6.62259 37.6246 9.89818 36.025 11.6565 33.3832C13.4148 30.7413 13.2005 27.3086 12.3883 25.736C12.3794 25.7181 12.3705 25.7001 12.3526 25.6821C12.674 25.4934 13.0042 25.2957 13.3255 25.107C13.9592 24.7296 14.584 24.3791 15.1195 24.0916C14.816 24.9273 14.5929 25.9247 14.4858 27.3625C14.3519 29.0519 15.0392 31.2445 15.9406 32.1071C16.3423 32.4846 16.8153 32.4935 17.1188 32.4935C18.1719 32.4935 18.645 31.6129 19.1716 30.5705C19.8142 29.2945 20.3944 27.8118 20.3944 27.8118C20.3944 27.8118 19.6714 31.8196 21.635 31.8196C22.349 31.8196 23.072 30.885 23.3933 30.4088V30.4178C23.3933 30.4178 23.4111 30.3908 23.4468 30.3279C23.5182 30.2111 23.5628 30.1392 23.5628 30.1392V30.1212C23.8485 29.618 24.4911 28.4768 25.4461 26.5807C26.6778 24.1365 27.8649 21.0813 27.8649 21.0813C27.8649 21.0813 27.972 21.8271 28.3379 23.0672C28.5521 23.7951 28.9984 24.5948 29.3554 25.3676C29.0698 25.772 28.8913 25.9966 28.8913 25.9966C28.8913 25.9966 28.8913 25.9966 28.9002 26.0056C28.6681 26.3111 28.4182 26.6436 28.1415 26.9671C27.1687 28.1353 26.0084 29.4742 25.8477 29.8606C25.6603 30.3189 25.7049 30.6514 26.0619 30.921C26.3208 31.1187 26.7849 31.1456 27.2579 31.1187C28.1326 31.0558 28.7485 30.8401 29.0519 30.7053C29.525 30.5346 30.0783 30.274 30.596 29.8876C31.551 29.1777 32.1311 28.1623 32.0776 26.8233C32.0508 26.0865 31.8098 25.3496 31.5153 24.6577C31.6046 24.5319 31.6849 24.4061 31.7741 24.2803C33.2825 22.0608 34.4517 19.6255 34.4517 19.6255C34.4517 19.6255 34.5588 20.3714 34.9248 21.6114C35.1033 22.2405 35.4692 22.9234 35.7905 23.5884C34.3714 24.7476 33.4967 26.0955 33.1843 26.9761C32.622 28.6116 33.0594 29.3484 33.8894 29.5192C34.2643 29.6 34.7998 29.4203 35.1925 29.2496C35.6924 29.0878 36.2814 28.8093 36.8437 28.3959C37.7987 27.686 38.718 26.6975 38.6645 25.3586C38.6377 24.7476 38.4771 24.1455 38.2539 23.5614C39.4588 23.0582 41.0118 22.7796 42.9933 23.0133C47.2417 23.5165 48.0807 26.1853 47.92 27.3086C47.7594 28.4318 46.8669 29.0429 46.5723 29.2316C46.2778 29.4203 46.1796 29.4832 46.2064 29.618C46.2421 29.8157 46.3849 29.8067 46.6348 29.7708C46.9829 29.7079 48.8661 28.8632 48.9465 26.7964C49.0803 24.1545 46.5812 21.27 42.1632 21.2969ZM9.38944 32.4216C7.97924 33.9672 6.01567 34.5513 5.16776 34.0571C4.25738 33.5269 4.61439 31.2445 6.3459 29.609C7.39909 28.6116 8.75574 27.686 9.6572 27.1199C9.86248 26.9941 10.1659 26.8144 10.5319 26.5897C10.5944 26.5538 10.6301 26.5358 10.6301 26.5358C10.7015 26.4909 10.7729 26.4459 10.8443 26.401C11.478 28.7374 10.871 30.7952 9.38944 32.4216ZM19.6536 25.3946C19.1627 26.5987 18.1362 29.6809 17.5115 29.5102C16.976 29.3664 16.6457 27.03 17.4044 24.7206C17.7882 23.5614 18.6004 22.1776 19.0734 21.6384C19.841 20.7757 20.6889 20.4882 20.8942 20.8386C21.153 21.2969 19.957 24.6397 19.6536 25.3946ZM28.1237 29.4742C27.9184 29.5821 27.722 29.6539 27.6328 29.6C27.5703 29.5641 27.722 29.4203 27.722 29.4203C27.722 29.4203 28.7842 28.2701 29.2036 27.7489C29.4446 27.4434 29.7302 27.0839 30.0337 26.6796V26.7964C30.0337 28.1713 28.7128 29.0968 28.1237 29.4742ZM34.657 27.9736C34.5053 27.8657 34.5321 27.5063 35.0408 26.383C35.2372 25.9427 35.7013 25.2059 36.4956 24.496C36.5849 24.7835 36.6474 25.0621 36.6384 25.3227C36.6295 27.057 35.3978 27.704 34.657 27.9736Z" fill="#CD6799"/>
</svg>
