<svg width="247" height="261" viewBox="0 0 247 261" fill="none" xmlns="http://www.w3.org/2000/svg">
<path fill-rule="evenodd" clip-rule="evenodd" d="M93.563 55.4796C138.184 47.3662 188.436 50.3983 221.871 78.0202C256.327 106.485 249.709 155.001 209.036 168.122C202.968 170.079 209.036 168.122 190.014 172.882C189.597 172.913 209.898 198.369 209.036 198.5C208.353 198.604 164.014 175.904 163.67 175.909C158.002 175.998 139.71 175.463 134.012 174.904C105.655 172.125 77.4615 163.84 54.7286 150.466C4.72965 121.051 44.1193 65.9351 85.1591 58.4582" fill="white"/>
<path d="M93.563 55.4796C138.184 47.3662 188.436 50.3983 221.871 78.0202C256.327 106.485 249.709 155.001 209.036 168.122C202.968 170.079 209.036 168.122 190.014 172.882C189.597 172.913 209.898 198.369 209.036 198.5C208.353 198.604 164.014 175.904 163.67 175.909C158.002 175.998 139.71 175.463 134.012 174.904C105.655 172.125 77.4615 163.84 54.7286 150.466C4.72965 121.051 44.1193 65.9351 85.1591 58.4582" stroke="#867D80" stroke-width="4.93587" stroke-miterlimit="1.5" stroke-linecap="round" stroke-linejoin="round"/>
<path d="M64.626 60.6712C62.7326 59.3699 60.9444 57.8967 59.0219 56.6448" stroke="#867D80" stroke-width="4.93587" stroke-miterlimit="1.5" stroke-linecap="round" stroke-linejoin="round"/>
<path d="M56.8329 63.8201C54.1967 61.8042 51.5956 59.7589 48.9273 57.7944" stroke="#867D80" stroke-width="4.93587" stroke-miterlimit="1.5" stroke-linecap="round" stroke-linejoin="round"/>
<path d="M49.7389 67.8149C47.1035 65.6337 44.517 63.0184 41.6406 61.2047" stroke="#867D80" stroke-width="4.93587" stroke-miterlimit="1.5" stroke-linecap="round" stroke-linejoin="round"/>
<path d="M42.6309 72.8229C40.0287 70.3942 37.0855 67.7401 34.0426 65.9299" stroke="#867D80" stroke-width="4.93587" stroke-miterlimit="1.5" stroke-linecap="round" stroke-linejoin="round"/>
<path d="M35.1704 79.6906C32.8201 77.3069 30.1461 75.358 27.4548 73.4451" stroke="#867D80" stroke-width="4.93587" stroke-miterlimit="1.5" stroke-linecap="round" stroke-linejoin="round"/>
<path d="M28.5374 87.7654C26.5433 85.7551 24.5609 83.7763 22.2904 82.1197" stroke="#867D80" stroke-width="4.93587" stroke-miterlimit="1.5" stroke-linecap="round" stroke-linejoin="round"/>
<path d="M23.7148 96.1157C21.5711 93.9776 19.2082 91.7113 16.6677 90.095" stroke="#867D80" stroke-width="4.93587" stroke-miterlimit="1.5" stroke-linecap="round" stroke-linejoin="round"/>
<path d="M20.0476 106.486C17.74 104.344 15.2321 102.479 12.8358 100.456" stroke="#867D80" stroke-width="4.93587" stroke-miterlimit="1.5" stroke-linecap="round" stroke-linejoin="round"/>
<path d="M19.3149 118.971C16.9869 117.095 14.7665 114.999 12.2604 113.39" stroke="#867D80" stroke-width="4.93587" stroke-miterlimit="1.5" stroke-linecap="round" stroke-linejoin="round"/>
<path d="M138.161 183.902C135.646 181.184 133.152 178.446 130.734 175.629" stroke="#867D80" stroke-width="4.93587" stroke-miterlimit="1.5" stroke-linecap="round" stroke-linejoin="round"/>
<path d="M125.751 182.358C122.37 179.811 119.423 176.694 115.966 174.252" stroke="#867D80" stroke-width="4.93587" stroke-miterlimit="1.5" stroke-linecap="round" stroke-linejoin="round"/>
<path d="M109.228 180.627C106.329 177.676 103.585 174.169 100.283 171.724" stroke="#867D80" stroke-width="4.93587" stroke-miterlimit="1.5" stroke-linecap="round" stroke-linejoin="round"/>
<path d="M93.8481 177.444C91.316 174.011 88.2786 170.616 84.9231 168.068" stroke="#867D80" stroke-width="4.93587" stroke-miterlimit="1.5" stroke-linecap="round" stroke-linejoin="round"/>
<path d="M77.2893 173.747C74.0206 169.475 70.1847 165.136 66.0549 161.8" stroke="#867D80" stroke-width="4.93587" stroke-miterlimit="1.5" stroke-linecap="round" stroke-linejoin="round"/>
<path d="M60.0067 167.128C55.8657 161.661 50.2901 156.698 45.2949 152.099" stroke="#867D80" stroke-width="4.93587" stroke-miterlimit="1.5" stroke-linecap="round" stroke-linejoin="round"/>
<path d="M40.853 161.065C32.2124 149.176 22.1029 138.347 12.7911 127.061" stroke="#867D80" stroke-width="4.93587" stroke-miterlimit="1.5" stroke-linecap="round" stroke-linejoin="round"/>
<path d="M25.5877 154.208C21.7393 149.296 17.612 144.504 13.5712 139.763" stroke="#867D80" stroke-width="4.93587" stroke-miterlimit="1.5" stroke-linecap="round" stroke-linejoin="round"/>
</svg>
