<svg width="34" height="43" viewBox="0 0 34 43" fill="none" xmlns="http://www.w3.org/2000/svg">
<g clip-path="url(#clip0_9_347)">
<path d="M33.5841 28.6402C33.5217 28.0541 33.4572 27.4484 33.4077 26.852C33.3434 26.0787 33.2297 25.2967 33.1197 24.5405C32.8692 22.8158 32.6099 21.0324 32.9258 19.2524C33.0551 18.5233 33.2155 17.8048 33.3966 17.0076C33.5481 16.3415 33.6617 15.5559 33.3568 14.7804C33.2153 14.3788 32.9853 14.0133 32.683 13.7103C32.381 13.4073 32.0142 13.1746 31.6097 13.0288C30.7867 12.7536 29.8512 12.8919 28.9763 13.4192C27.2151 14.4807 26.0126 15.9465 25.403 17.7753C25.3598 17.9045 25.315 18.0331 25.2604 18.1899L25.2203 18.3056L25.1799 18.2513C25.1042 18.1482 25.0462 18.0712 24.9934 17.9914C24.5912 17.3853 24.1922 16.7771 23.7964 16.1667C22.9289 14.8369 22.0318 13.4618 21.0984 12.1437C19.6461 10.093 18.1006 8.08943 16.6419 6.21313C16.2158 5.67836 15.7116 5.20904 15.1459 4.82049C14.2937 4.22634 13.2763 4.17921 12.2787 4.68792C11.3002 5.18709 11.2015 6.1402 11.2339 7.00618C11.2396 7.15575 11.2384 7.30531 11.2369 7.49601C11.2369 7.54163 11.2369 7.5895 11.2359 7.64054C11.1706 7.58446 11.1102 7.52949 11.0532 7.47827C10.8887 7.31421 10.7027 7.17263 10.5001 7.05724C10.3469 6.98003 10.1936 6.89926 10.0401 6.81812C9.49144 6.49691 8.90253 6.24807 8.28838 6.07796C7.87976 5.9848 7.45452 5.98901 7.04787 6.09021C6.64119 6.19141 6.26472 6.3867 5.94963 6.65996C5.35632 7.19073 5.09387 7.97594 5.2111 8.87072C5.26601 9.29268 5.31828 9.7152 5.37301 10.1579L5.43988 10.6962L5.3586 10.6902C5.241 10.6818 5.14141 10.6747 5.04199 10.6653C4.62302 10.6099 4.1968 10.6473 3.79433 10.7749C3.39186 10.9024 3.02319 11.1169 2.71516 11.4027C2.43644 11.6882 2.22586 12.0316 2.09859 12.4077C1.97131 12.7838 1.9306 13.1832 1.97949 13.5768C2.0567 14.1794 2.19981 14.7719 2.40632 15.3441C2.46578 15.5299 2.52524 15.7156 2.57997 15.9012C2.65856 16.1476 2.75345 16.3887 2.86403 16.6229C2.89811 16.6997 2.9318 16.775 2.96324 16.8489C2.94676 16.8651 2.93373 16.8786 2.92256 16.8898C2.91358 16.8984 2.90533 16.9075 2.89777 16.9173C2.81204 16.9514 2.72416 16.98 2.63472 17.003C1.38978 17.2976 0.606168 18.0804 0.239734 19.396C-0.00947863 20.29 0.0403593 21.233 0.392212 22.2792C1.06089 24.2271 1.97786 26.0832 3.12117 27.8025C5.57797 31.536 8.42895 35.0014 11.6262 38.1412C13.3338 39.8395 14.9402 41.0257 16.6804 41.8738C18.0886 42.5689 19.6414 42.9304 21.2158 42.9299C22.3943 42.9224 23.5648 42.739 24.6878 42.3862C28.1135 41.3368 30.698 39.253 32.3698 36.1927C33.1862 34.698 33.9128 33.2166 33.8344 31.5291C33.788 30.5633 33.6842 29.5857 33.5841 28.6402ZM5.34029 20.5803C5.86825 21.3248 6.43618 22.0584 6.98554 22.7677C7.38474 23.2834 7.79732 23.8164 8.19084 24.3486C8.66976 24.9961 9.13945 25.6676 9.59338 26.3169C9.88558 26.735 10.1779 27.153 10.4747 27.5678C10.8724 28.1231 11.2445 28.4265 11.7702 28.1052C11.9171 28.0132 12.0436 27.893 12.1423 27.7516C12.241 27.6103 12.3099 27.4508 12.3447 27.2826C12.3802 27.1283 12.3834 26.9685 12.3541 26.8129C12.3248 26.6572 12.2636 26.5093 12.1743 26.3779C11.0381 24.7327 10.09 23.4144 9.19299 22.2274C8.85402 21.7787 8.50201 21.33 8.16152 20.8948C6.96526 19.3672 5.72825 17.7878 4.85752 16.0093C4.54703 15.3453 4.27094 14.6662 4.03021 13.9746L3.89762 13.6142C3.74858 13.213 3.81391 12.894 4.09134 12.6667C4.36404 12.4423 4.683 12.4135 5.09507 12.5743C5.96059 12.8987 6.69745 13.4893 7.19702 14.2588L7.59248 14.8599C8.81525 16.7188 10.0794 18.6411 11.3435 20.5185C11.9249 21.382 12.5631 22.2271 13.1804 23.0442L13.2145 23.0897C13.4684 23.4288 13.7549 23.7431 14.0701 24.0276C14.261 24.2071 14.5004 24.3281 14.7595 24.3759C15.0185 24.4238 15.2861 24.3965 15.5298 24.2974C15.9116 24.1596 16.1568 23.9422 16.2386 23.667C16.2723 23.5159 16.2692 23.3591 16.2292 23.2095C16.1893 23.06 16.1137 22.922 16.0089 22.807C15.6781 22.3757 15.3209 21.9545 14.9753 21.5471C14.7278 21.2553 14.4718 20.9533 14.2283 20.651C12.2728 18.2236 9.79351 14.9704 7.96153 11.3313C7.56385 10.5432 7.35027 9.64247 7.14727 8.7118C7.07322 8.37136 7.10256 8.13374 7.23455 8.00511C7.37146 7.872 7.63941 7.84636 8.00887 7.93031C8.84902 8.12751 9.59563 8.60253 10.1246 9.27641C10.401 9.61294 10.6787 9.94834 10.9578 10.2826C11.9556 11.4857 12.9875 12.7295 13.9253 14.0064C14.91 15.3459 15.8541 16.7493 16.7678 18.1062C17.1816 18.7205 17.5952 19.3347 18.0139 19.9456C18.1586 20.1567 18.2902 20.3367 18.4163 20.4955C18.4785 20.5803 18.5574 20.6518 18.6482 20.7056C18.7391 20.7595 18.8401 20.7946 18.9451 20.8088C19.029 20.817 19.1138 20.8081 19.1939 20.7823C19.2742 20.7566 19.3481 20.7148 19.4111 20.6592C19.6418 20.4297 19.7885 20.1305 19.8277 19.8093C19.8582 19.6104 19.7209 19.3967 19.6005 19.2079L19.5575 19.1408C19.0358 18.3096 18.5119 17.4798 17.9857 16.6515C16.9659 15.0412 15.9114 13.3764 14.9001 11.7237C14.2556 10.6564 13.672 9.55429 13.1522 8.42258C12.9307 7.90256 12.8025 7.34842 12.7735 6.78503C12.7422 6.40944 12.8434 6.1232 13.0575 5.97944C13.2755 5.83342 13.5878 5.84705 13.9387 6.01812C14.2979 6.20696 14.6142 6.46642 14.8679 6.78053C15.6381 7.69998 16.3863 8.60522 17.0752 9.57104C18.1158 11.0293 19.153 12.5274 20.1561 13.9758C20.6521 14.6922 21.1488 15.4081 21.6466 16.1235C22.0097 16.6438 22.3742 17.1632 22.7405 17.6814C23.1705 18.2921 23.5994 18.9037 24.027 19.5162C24.1869 19.7461 24.3401 19.9808 24.4931 20.2154C24.6881 20.5145 24.8896 20.8221 25.1025 21.1165C25.3074 21.4127 25.5536 21.6787 25.8338 21.9068C26.0003 22.0491 26.2128 22.128 26.4328 22.1291C26.6531 22.1304 26.8663 22.0538 27.0343 21.9132C27.3515 21.6671 27.4452 21.2994 27.3053 20.8494C27.2638 20.7161 27.2151 20.5841 27.1664 20.4523C27.0776 20.2298 27.0068 20.0008 26.9547 19.7673C26.5684 17.7555 28.1247 15.6428 29.3965 14.8913C29.9165 14.5841 30.4251 14.3375 30.9304 14.6841C31.4648 15.0507 31.3603 15.6142 31.2072 16.16C30.8982 17.2651 30.5454 18.7285 30.5634 20.2483C30.5657 20.4306 30.5651 20.6131 30.5647 20.7957C30.5522 21.3508 30.5744 21.9061 30.631 22.4585C30.7787 23.6507 30.9569 24.859 31.129 26.0277C31.2196 26.6433 31.3105 27.259 31.3974 27.875C31.4407 28.1826 31.4765 28.492 31.5123 28.7999C31.5502 29.1211 31.5881 29.4531 31.635 29.779C31.9528 31.9914 31.283 34.0528 29.4631 36.4629C27.5535 38.9916 24.6548 40.6402 21.7084 40.873H21.6198C18.0651 40.873 15.9888 39.7073 13.973 37.9589C12.4277 36.6184 10.4776 34.7782 9.10293 32.4285C8.84485 32.0167 8.55028 31.6282 8.22284 31.2675C8.07835 31.0993 7.92899 30.9241 7.79037 30.7487C5.43762 27.7731 3.77117 24.8385 2.6963 21.7772C2.50375 21.219 2.42883 20.6276 2.47623 20.0399C2.50767 19.6901 2.63172 19.4416 2.83435 19.3191C2.94343 19.2565 3.06798 19.2249 3.19414 19.2281C3.37694 19.2337 3.55694 19.2739 3.72434 19.3466C4.37548 19.5895 4.93817 20.0191 5.33991 20.5803H5.34029Z" fill="#867D80"/>
<path d="M17.5694 6.09568L17.6796 6.22377C17.8921 6.4893 18.1694 6.69714 18.4855 6.82781C18.7548 6.92128 19.2383 6.96484 19.4691 6.77321C19.6897 6.58962 19.7585 6.08559 19.6585 5.81712C19.5261 5.51204 19.3511 5.22678 19.1387 4.96966C19.0652 4.87151 18.9919 4.77353 18.9232 4.67388C18.819 4.52431 18.7097 4.3768 18.5849 4.20948C18.5543 4.16816 18.5222 4.12554 18.4902 4.08123C20.0107 3.9082 21.5511 4.04223 23.0176 4.47516C26.7777 5.63728 29.1911 7.40475 30.6127 10.0375C30.6259 10.0616 30.6388 10.0872 30.6521 10.1134C30.7038 10.2583 30.8039 10.3816 30.9361 10.4626C31.0774 10.5205 31.2283 10.5514 31.3812 10.5539C31.4662 10.5553 31.5508 10.5408 31.6304 10.5111C31.8122 10.4389 31.9237 10.1302 31.9209 9.95018C31.911 9.70847 31.8368 9.47358 31.7059 9.26908C31.5749 9.06343 31.4471 8.84826 31.3234 8.63943C31.014 8.06048 30.6316 7.52244 30.1855 7.03813C26.9612 3.84417 23.082 2.35732 18.6527 2.62018C18.5201 2.62785 18.3831 2.62633 18.1933 2.62427L18.0607 2.6228L18.7963 2.01818C18.8878 1.9434 18.9804 1.86974 19.0728 1.79626C19.2811 1.63136 19.4951 1.46086 19.6928 1.27633C19.8562 1.12377 20.2393 0.766496 19.92 0.314435C19.5843 -0.161555 19.1097 0.137566 18.9311 0.249554L18.9008 0.268268C17.9977 0.836055 17.0639 1.42308 16.1721 2.04116C15.3989 2.57754 15.2801 3.1685 15.7982 3.90119C16.3405 4.66715 16.9653 5.39347 17.5694 6.09568Z" fill="#867D80"/>
</g>
<defs>
<clipPath id="clip0_9_347">
<rect width="33.8975" height="43" fill="white" transform="translate(0.0462418)"/>
</clipPath>
</defs>
</svg>
