<svg width="97" height="85" viewBox="0 0 97 85" fill="none" xmlns="http://www.w3.org/2000/svg">
<g clip-path="url(#clip0_9_540)">
<rect width="45.5428" height="84.5553" transform="matrix(0.549025 0.835806 -0.834279 0.551342 71.0402 0)" fill="white"/>
<path d="M45.117 71.4748C56.1996 63.6429 67.4738 55.5885 79.5844 46.8518C82.7222 44.5879 85.8189 42.1601 88.8136 39.8126C89.537 39.2452 90.2612 38.6785 90.9858 38.1124C93.2058 36.3794 93.5296 34.3532 91.9709 31.9198C91.9101 31.8209 91.8408 31.7253 91.7733 31.6302L90.0425 29.0958C88.5549 26.9153 87.0646 24.7366 85.5717 22.5598C85.1722 21.9511 84.7159 21.3818 84.2089 20.8596C82.9507 19.6233 82.1489 19.5135 80.6333 20.3691C79.6528 20.9403 78.7026 21.562 77.7862 22.2316C70.3336 27.5211 62.8847 32.8164 55.0587 38.3799L48.3918 43.1191C47.0832 44.0145 45.709 44.9611 44.2865 45.9408C40.7732 48.3603 37.1402 50.8621 33.3911 53.3633C30.5159 55.2816 27.5607 57.1874 24.7029 59.0301C22.533 60.4297 20.2892 61.8771 18.0945 63.3204C14.976 65.3709 14.5233 67.3864 16.4798 70.5081C16.6935 70.8491 16.9107 71.1874 17.1315 71.5229C18.3557 73.3866 19.6765 75.1758 20.9587 76.9118C22.411 78.8791 23.6442 80.4219 24.84 81.7676C26.1276 83.2173 27.337 83.3245 29.0159 82.1381L29.1065 82.0746C30.8758 80.8226 32.707 79.5297 34.5472 78.3243C35.8435 77.4751 37.18 76.6353 38.4722 75.8227C40.676 74.4362 42.955 73.0032 45.117 71.4748ZM25.4446 64.0378C25.6013 64.2101 25.7515 64.3788 25.9005 64.5425C26.361 65.0542 26.7934 65.5388 27.2696 65.9817C28.6336 67.2515 29.7434 66.9742 30.434 66.5183C31.1475 66.0467 31.8467 65.1235 31.122 63.3998C30.8923 62.8519 30.6756 62.2842 30.4467 61.6832C30.3695 61.4811 30.2904 61.2729 30.2075 61.0576L33.937 58.593C34.008 58.6796 34.0781 58.7661 34.1485 58.8519C34.4522 59.2423 34.7787 59.6144 35.1266 59.966L35.3602 60.1954C35.8213 60.7137 36.3742 61.142 36.9916 61.4588C37.3361 61.6153 37.7183 61.6708 38.0941 61.6186C38.4699 61.5663 38.8236 61.4086 39.1143 61.1639C39.4427 60.8785 39.6856 60.5074 39.8156 60.0924C39.9456 59.6774 39.9573 59.235 39.8496 58.8149C39.6301 57.9675 39.3401 57.1404 38.9827 56.342C38.8637 56.0529 38.7422 55.7594 38.6245 55.4584L42.2072 53.0907L42.6071 53.5026C43.0619 53.9704 43.5312 54.4531 43.9943 54.9411C44.3244 55.2883 45.3285 56.3459 46.6181 55.59C47.9834 54.7891 47.463 53.3385 47.2679 52.7921C47.0313 52.1321 46.7408 51.4949 46.4339 50.8206C46.3345 50.603 46.2336 50.3806 46.1315 50.152L49.7682 47.7486L49.8361 47.8311C50.0855 48.1451 50.3523 48.4447 50.6362 48.7279C50.7302 48.8192 50.8242 48.9163 50.9191 49.014C51.2766 49.4591 51.7456 49.8013 52.2787 50.0063C52.9015 50.1762 54.0519 50.1773 54.5444 49.6401C54.8031 49.3055 54.9846 48.9178 55.0759 48.5051C55.1669 48.0926 55.1656 47.6652 55.0714 47.2542C54.8395 46.5533 54.5068 45.8903 54.0835 45.2864C53.9629 45.0939 53.84 44.8973 53.7191 44.6943L57.7322 42.0422C57.8247 42.1515 57.9189 42.2633 58.0136 42.3773C58.4132 42.8543 58.8266 43.3479 59.2751 43.8261C60.2656 44.882 61.3733 45.1123 62.2374 44.4415C63.3235 43.5997 63.0526 42.5417 62.6453 41.6186C62.5699 41.4476 62.4986 41.2748 62.4267 41.1015C62.3163 40.835 62.2062 40.5682 62.0822 40.3081C61.9428 40.0139 61.7885 39.7284 61.6089 39.3983L61.4843 39.1664L65.4888 36.52L65.8337 36.821C66.2876 37.2171 66.7781 37.6464 67.2766 38.0663C67.8204 38.525 69.0936 39.5991 70.4218 38.5283C71.6673 37.5253 71.0422 36.2159 70.6276 35.348C70.3819 34.8338 70.0961 34.3407 69.7931 33.8189C69.7017 33.6601 69.6076 33.4979 69.5131 33.3295L73.3045 30.4149C73.4588 30.5867 73.6092 30.7557 73.7573 30.9217C74.2353 31.4602 74.6892 31.9675 75.1649 32.46C76.6126 33.9581 77.7407 33.4608 78.284 33.0306C79.5795 32.0065 78.9775 30.631 78.7203 30.0433C78.5854 29.7363 78.4355 29.4342 78.2902 29.1424C78.2005 28.9617 78.1107 28.7808 78.0243 28.5988C77.8908 28.3173 77.7613 28.0336 77.6042 27.6909L77.4653 27.3873L80.8112 24.9035L88.0628 35.1699C86.246 36.4992 84.4313 37.8283 82.6187 39.1573C65.0103 52.0611 46.8053 65.4022 27.8444 77.1097L20.7301 67.1547L25.4446 64.0378Z" fill="black"/>
<path d="M19.76 35.1452C17.3923 36.8161 15.1145 38.6113 12.9361 40.5232C10.6248 42.5287 9.74386 45.3263 10.3873 48.6135C10.6043 49.7859 11.0475 50.9036 11.692 51.9043C12.749 53.5285 14.3938 54.6786 16.2832 55.1148C19.3819 55.8614 22.3947 55.4451 24.7654 53.9434C26.1797 53.0472 27.5444 52.0325 28.8636 51.0515C29.5904 50.5112 30.3408 49.9512 31.0908 49.4216C35.3061 46.4341 39.5293 43.4516 44.6886 39.8076L51.7016 34.8537L54.2109 33.1325C57.5812 30.8192 62.197 27.6509 66.8434 24.4947C67.8936 23.8068 68.6964 22.7999 69.133 21.6231C69.6188 20.3612 70.1714 19.0962 70.7058 17.8729C70.9895 17.2235 71.2728 16.5743 71.5486 15.9218L72.0034 14.8466C72.7161 13.1651 73.453 11.4259 74.1436 9.69996C74.6972 8.31468 74.4162 7.44829 74.0786 6.96963C73.7409 6.49096 73.042 5.93183 71.5763 5.97658C70.7307 6.03021 69.8921 6.16701 69.0725 6.3851L68.7354 6.46399C65.7412 7.16282 62.644 7.88416 59.6148 8.66311C58.6079 8.88856 57.6439 9.27766 56.7613 9.81487C53.7745 11.7552 50.6403 13.8575 46.5995 16.6317L44.1268 18.3295C36.1272 23.8196 27.8551 29.4989 19.76 35.1452ZM63.6109 12.2666L65.804 11.6749C66.0118 11.9445 66.2331 12.1987 66.4483 12.4456C66.9708 13.044 67.4625 13.6107 67.5181 14.1467C67.5791 14.7445 67.2526 15.4259 66.8746 16.2158C66.7814 16.4097 66.6871 16.6069 66.5951 16.8096L63.6109 12.2666ZM16.5566 50.0625C16.1796 49.657 15.8927 49.176 15.7145 48.651C15.5363 48.126 15.4708 47.5687 15.5225 47.0156C15.7067 45.2864 16.6446 44.026 18.1086 42.6209L23.5686 49.5657C22.201 50.5444 20.5681 51.0814 18.8908 51.1038C18.4489 51.1095 18.0115 51.0194 17.6086 50.8397C17.2058 50.66 16.8468 50.395 16.5568 50.0627L16.5566 50.0625ZM22.9149 39.5042L58.3929 14.6897L62.4493 20.8649L27.1044 45.8821L22.9149 39.5042Z" fill="black"/>
</g>
<defs>
<clipPath id="clip0_9_540">
<rect width="45.5428" height="84.5553" fill="white" transform="matrix(0.549025 0.835806 -0.834279 0.551342 71.0402 0)"/>
</clipPath>
</defs>
</svg>
