<svg width="298" height="375" viewBox="0 0 298 375" fill="none" xmlns="http://www.w3.org/2000/svg">
<g filter="url(#filter0_d_26_27)">
<path d="M258.272 366.307L293.162 60.2897L39.5767 31.3774L4.68638 337.395L258.272 366.307Z" fill="white"/>
<path d="M258.272 366.307L293.162 60.2897L39.5767 31.3774L4.68638 337.395L258.272 366.307Z" stroke="white"/>
</g>
<rect x="57.5755" y="49.5332" width="223.325" height="235" transform="rotate(6.50444 57.5755 49.5332)" fill="url(#paint0_linear_26_27)"/>
<path d="M142.962 66.3138L167.531 26.8429L168.324 19.888L178.427 28.0853L179.787 16.1625L192.098 22.5985L203.56 18.873L173.67 69.8149C173.67 69.8149 159.04 63.6178 158.316 68.0644C157.591 72.5109 142.962 66.3138 142.962 66.3138Z" fill="#D9D9D9"/>
<defs>
<filter id="filter0_d_26_27" x="0.132956" y="30.824" width="297.582" height="344.037" filterUnits="userSpaceOnUse" color-interpolation-filters="sRGB">
<feFlood flood-opacity="0" result="BackgroundImageFix"/>
<feColorMatrix in="SourceAlpha" type="matrix" values="0 0 0 0 0 0 0 0 0 0 0 0 0 0 0 0 0 0 127 0" result="hardAlpha"/>
<feOffset dy="4"/>
<feGaussianBlur stdDeviation="2"/>
<feComposite in2="hardAlpha" operator="out"/>
<feColorMatrix type="matrix" values="0 0 0 0 0 0 0 0 0 0 0 0 0 0 0 0 0 0 0.25 0"/>
<feBlend mode="normal" in2="BackgroundImageFix" result="effect1_dropShadow_26_27"/>
<feBlend mode="normal" in="SourceGraphic" in2="effect1_dropShadow_26_27" result="shape"/>
</filter>
<linearGradient id="paint0_linear_26_27" x1="430.785" y1="194.154" x2="43.4582" y2="160.312" gradientUnits="userSpaceOnUse">
<stop stop-color="#BFBC9C"/>
<stop offset="1" stop-color="#F6F0BD"/>
</linearGradient>
</defs>
</svg>
