<svg width="53" height="48" viewBox="0 0 53 48" fill="none" xmlns="http://www.w3.org/2000/svg">
<g clip-path="url(#clip0_9_538)">
<path d="M26.2112 47.7155C30.4234 47.9616 33.0592 47.4529 37.2755 47.3004C38.095 47.2278 38.87 46.8947 39.4875 46.3497C44.1106 41.7979 47.6459 36.3832 51.244 31.0364C52.5795 29.052 52.2203 27.4343 50.3537 25.858C42.7095 19.4029 30.6744 8.91659 22.9345 2.42572C22.7757 2.29313 22.5089 2.08444 22.3398 1.96351C18.7904 -0.570676 17.7139 -0.492442 15.1453 2.92749C12.7065 6.17584 10.4212 9.539 8.01207 12.8099C6.35123 15.064 4.59729 17.2506 2.878 19.4617C2.49103 19.9592 2.02312 20.3998 1.68138 20.9246C0.0887833 23.3718 0.332394 25.0764 2.52938 27.0009C6.95642 30.8786 15.82 38.8877 20.2439 42.7691C20.7986 43.2547 24.7304 47.6285 26.2112 47.7155ZM5.75054 24.8436C10.1789 17.7518 15.0466 11.0066 19.3763 4.07283C24.103 7.83858 32.3943 15.5857 36.8808 19.161L19.7792 37.4002C16.494 34.5218 8.87304 27.5799 5.75054 24.8436ZM23.7311 40.9782C29.2165 34.6931 33.7485 27.565 39.8803 21.7106L48.0155 28.8589C45.3133 32.8164 42.965 36.7426 40.1358 40.2824C36.0931 45.3404 38.0462 44.2361 31.5814 44.8071C29.8021 44.9644 26.9542 44.5456 26.9542 44.5456C26.9542 44.5456 24.5995 42.6463 23.7311 40.9782Z" fill="black" fill-opacity="0.6"/>
</g>
<defs>
<clipPath id="clip0_9_538">
<rect width="51.8432" height="48" fill="white" transform="matrix(-1 0 0 1 52.2975 0)"/>
</clipPath>
</defs>
</svg>
