<svg width="164" height="164" viewBox="0 0 164 164" fill="none" xmlns="http://www.w3.org/2000/svg">
<path d="M94.708 33.9899C94.4752 30.411 94.2505 21.3844 94.8775 20.6441C95.7522 19.6112 97.2521 19.2678 98.5027 18.9412C98.5344 15.9012 98.6218 12.8487 98.576 9.80867C98.552 8.21721 98.5029 5.9994 99.2313 4.54227C99.978 3.04848 103.163 1.60599 103.952 3.87154C104.337 4.97652 104.253 6.24316 104.31 7.39576C104.426 9.72542 104.418 12.0583 104.445 14.3897C105.334 12.988 107.803 12.8884 108.855 14.159C109.245 14.6301 109.334 15.2696 109.386 15.8627C110.899 13.8838 113.101 15.7434 113.874 17.4274C114.274 17.2914 114.658 17.1433 115.083 17.1027C116.898 16.9293 117.895 18.7909 118.144 20.3317C118.364 21.6953 118.421 29.8331 118.348 33.767" stroke="black" stroke-width="4.58579" stroke-miterlimit="1.5" stroke-linecap="round" stroke-linejoin="round"/>
<path d="M98.4921 18.9254C98.4228 20.9586 98.7273 23.0093 98.6457 25.0471" stroke="black" stroke-width="4.58579" stroke-miterlimit="1.5" stroke-linecap="round" stroke-linejoin="round"/>
<path d="M93.668 39.1874C93.6108 37.5168 93.6577 35.8065 93.6868 34.1901C95.5969 33.8569 97.5051 34.0828 99.4236 34.1104C101.255 34.1368 103.09 33.9729 104.924 33.9801C109.719 33.9993 114.538 33.5944 119.335 33.766C119.313 35.0972 119.389 37.1094 119.417 38.8349" stroke="black" stroke-width="4.58579" stroke-miterlimit="1.5" stroke-linecap="round" stroke-linejoin="round"/>
<path d="M97.1961 161.256C96.9748 155.967 97.7003 146.415 95.0059 141.259C93.401 138.188 89.5994 138.074 86.5912 137.962C78.9819 137.679 72.9702 137.206 65.3343 137.043C27.3978 136.238 28.7778 68.649 67.0563 67.6113C73.0551 67.4488 79.0096 66.9814 85.027 67.1074C90.2676 67.2171 91.7938 64.0118 92.2588 59.2644C92.9044 52.6736 91.4038 45.7859 92.3052 39.2574C97.3369 39.5694 102.357 38.957 107.378 38.9711C112.048 38.984 116.781 39.1039 121.452 38.9291C120.933 41.4597 121.536 44.6407 121.612 47.2361C121.796 53.5783 120.805 65.3301 120.578 71.6749C120.445 75.3853 120.051 80.1532 117.913 83.305C115.173 87.342 110.385 90.4748 106.025 92.5469C102.837 94.0623 99.3258 95.0464 95.8119 95.3504C91.167 95.7522 86.4676 96.3342 81.8397 96.6959C76.7895 97.0906 71.4118 97.9816 70.583 103.286C70.3098 105.035 70.7529 106.734 72.0358 108.001C74.8829 110.812 87.9074 110.558 90.7619 110.522C100.355 110.403 114.437 111.415 122.118 121.111C125.52 125.406 126.555 135.755 126.47 140.859C126.36 147.515 126.69 152.645 126.221 159.291" stroke="black" stroke-width="4.58579" stroke-miterlimit="1.5" stroke-linecap="round" stroke-linejoin="round"/>
</svg>
