<svg width="158" height="18" viewBox="0 0 158 18" fill="none" xmlns="http://www.w3.org/2000/svg">
<path d="M109.04 15.0003C91.5041 11.2511 71.928 13.2854 54.185 13.6298C49.0831 13.7289 43.8633 14.3897 38.7663 14.1067C38.1015 14.07 35.2012 13.9321 34.6571 13.1953C34.5861 13.0994 36.8477 12.7213 37.9465 12.5595C40.083 12.245 42.2184 12.013 44.3532 11.6809C49.9653 10.8082 55.6756 10.3824 61.3369 9.9901C75.8695 8.98398 101.867 5.88339 116.071 10.2559C116.774 10.4725 114.599 10.2186 113.863 10.1985C112.654 10.1657 111.445 10.1183 110.235 10.0803C106.291 9.9568 102.312 9.7372 98.3671 9.77173C85.653 9.88228 72.8939 9.35114 60.1828 9.82687C56.358 9.97021 52.5454 10.2678 48.719 10.3829C46.5025 10.4494 46.6018 10.5058 44.3111 10.4281C43.3179 10.3943 40.5639 10.6931 41.3494 10.0842C42.7329 9.01155 47.057 9.27985 48.7294 9.06099C56.3655 8.06282 63.9826 6.75933 71.6577 6.05902C91.3372 4.26341 111.371 4.25918 131.096 5.01042C139.165 5.31772 147.317 4.12902 155.351 5.08943C135.857 2.57165 115.593 2.92913 95.9917 3.00191C73.9221 3.08389 51.8774 3.08936 29.8074 3.55441C20.7469 3.7452 11.8691 5.4707 2.78094 5.34475" stroke="#DEDEDE" stroke-opacity="0.87" stroke-width="4.05049" stroke-miterlimit="1.5" stroke-linecap="round" stroke-linejoin="round"/>
</svg>
