<svg width="23" height="19" viewBox="0 0 23 19" fill="none" xmlns="http://www.w3.org/2000/svg">
<g clip-path="url(#clip0_9_543)">
<path d="M7.53742 6.74233C7.66238 6.5882 7.78786 6.43448 7.91387 6.28125C8.23549 5.88864 8.56793 5.48258 8.88117 5.0729C9.28581 4.54325 9.25821 4.29879 8.74087 3.82867C8.69783 3.78966 8.65243 3.753 8.60695 3.71652C8.57202 3.68819 8.53641 3.65983 8.50219 3.63015L8.09737 3.27711C7.70827 2.9378 7.3059 2.58693 6.91348 2.23879C6.61531 1.9743 6.31828 1.70881 6.02239 1.44225C5.62718 1.08764 5.21852 0.720823 4.81248 0.364194C4.35851 -0.0351421 4.09861 -0.0344544 3.65529 0.367068C3.23293 0.749506 2.80646 1.14126 2.39405 1.52C2.02529 1.8587 1.65588 2.1967 1.28584 2.5341C1.12348 2.67968 0.994207 2.85614 0.906186 3.05224C0.818164 3.24834 0.7733 3.45987 0.774426 3.6735C0.777566 4.0089 0.821723 4.34278 0.905988 4.66822C1.12014 5.55626 1.57961 6.35251 2.02406 7.12302L2.13406 7.31416C3.28714 9.32189 4.53486 10.9237 5.94958 12.2111C6.21149 12.4492 6.45941 12.7128 6.69949 12.9677C7.01958 13.3235 7.36458 13.6578 7.7321 13.9682C8.8087 14.8353 9.99036 15.716 11.3443 16.6609C12.4589 17.4388 13.4396 18.0016 14.4295 18.4325C15.1532 18.7574 15.941 18.9291 16.7396 18.9357C17.0816 18.9356 17.4228 18.9022 17.7578 18.8358L17.8108 18.8253C18.3195 18.7252 18.8454 18.6217 19.2882 18.2801C19.508 18.1106 19.7478 17.9549 19.9797 17.8041C20.1013 17.7251 20.2229 17.6461 20.3425 17.5647C20.4496 17.4919 20.5593 17.4218 20.6689 17.3516C20.9396 17.1881 21.1961 17.004 21.4361 16.8008C22.1001 16.207 21.961 15.7958 21.4962 15.2861C20.9881 14.7288 20.4922 14.1435 20.0121 13.5777C19.821 13.3523 19.6296 13.1273 19.4377 12.9026C19.2868 12.7266 19.1369 12.5499 18.9878 12.3723C18.6997 12.0309 18.402 11.6779 18.0981 11.3389C17.5206 10.6947 17.2761 10.674 16.5593 11.2088C16.0638 11.5787 15.564 11.9586 15.08 12.3263C14.7752 12.5579 14.4702 12.7892 14.1648 13.0203C14.0729 13.0896 13.9766 13.1541 13.8835 13.2165L13.8252 13.2555C13.6385 13.0677 13.4522 12.8799 13.2664 12.6922C11.372 10.7829 9.41475 8.80948 7.2749 7.04946C7.29681 7.02424 7.31794 7.00001 7.3381 6.97672C7.41249 6.89072 7.47631 6.8174 7.53742 6.74233ZM6.29922 7.30389C7.62621 8.6764 8.95243 10.0498 10.2779 11.4239L12.1501 13.3636C12.2287 13.4452 12.3087 13.5256 12.3887 13.606C12.5229 13.7405 12.6616 13.8805 12.7909 14.0225C13.2075 14.4801 13.6877 14.5377 14.3967 14.2146C14.6204 14.1015 14.8293 13.9631 15.0191 13.8025C15.0833 13.7525 15.1473 13.7026 15.212 13.6547C15.7064 13.2892 16.1986 12.9213 16.7005 12.5464L17.2505 12.1355L20.6123 16.0875C20.4399 16.2033 20.2672 16.3233 20.0994 16.4401C19.6348 16.7772 19.1493 17.0868 18.6458 17.3674C18.2466 17.579 17.7428 17.6466 17.261 17.6978C16.2396 17.8065 15.3105 17.639 14.4982 17.2012L14.341 17.1163C13.5361 16.6825 12.7038 16.2341 11.9402 15.7208C10.8862 15.0227 9.87215 14.2701 8.90264 13.4664C8.43095 13.0562 7.98098 12.6233 7.55444 12.1694C7.25054 11.8567 6.93653 11.5335 6.61159 11.2308C5.77472 10.4519 4.98533 9.51021 4.1275 8.26701C3.36614 7.16408 2.78306 6.00796 2.31294 5.02265C2.13423 4.64795 1.95972 4.20242 2.01952 3.73843C2.03145 3.55829 2.0959 3.38508 2.20548 3.23861C2.72518 2.67046 3.26976 2.10554 3.79637 1.55933C3.94635 1.40386 4.09622 1.24823 4.24597 1.09242C5.43214 2.38434 6.72683 3.59859 7.95455 4.72077C7.56256 5.23879 7.10543 5.70805 6.5936 6.11779C6.56156 6.14301 6.52856 6.16698 6.49556 6.19111C6.43082 6.23677 6.36872 6.2858 6.30953 6.33798C5.96285 6.65434 5.95971 6.95249 6.29922 7.30357V7.30389Z" fill="black"/>
<path d="M18.0192 1.78616C16.2579 0.675414 14.1586 0.116898 11.4129 0.0290444C10.3706 -0.0108892 8.71523 0.31322 7.77874 0.634371C7.61675 0.68972 7.46403 0.767611 7.32547 0.865566C7.12721 1.00731 7.06985 1.20346 7.17217 1.39018C7.28697 1.59961 7.48016 1.54465 7.59558 1.51194C7.61801 1.50556 7.64045 1.49917 7.66254 1.49413C8.95547 1.20333 9.95518 1.07378 10.9019 1.07378H10.9152C11.9545 1.07972 12.9898 1.19778 14.0017 1.42582C16.4055 1.95059 18.2829 3.06287 19.7409 4.82625C21.0549 6.41519 21.5399 8.21774 21.224 10.3368C21.1483 10.8552 21.0022 11.3617 20.7892 11.8435C20.6444 12.1713 20.6268 12.4457 20.7336 12.7057C20.7566 12.778 20.7958 12.8447 20.8484 12.9008C20.901 12.957 20.9658 13.0013 21.0382 13.0307C21.0811 13.0451 21.1262 13.0525 21.1716 13.0524C21.2743 13.0491 21.3743 13.0201 21.4618 12.9683C21.7084 12.8328 21.8849 12.6189 22.0169 12.295C22.8144 10.3394 22.856 8.40767 22.1407 6.55365C21.4074 4.65213 20.0207 3.04831 18.0192 1.78616Z" fill="black"/>
<path d="M17.647 9.7236C17.7369 9.8413 17.8752 9.98699 18.0824 9.98699C18.1182 9.98691 18.154 9.98279 18.1889 9.9748C18.4528 9.91511 18.5007 9.66551 18.5238 9.54554C18.6317 8.97352 18.5563 8.38345 18.3073 7.8538C18.1082 7.41487 17.9153 7.03249 17.7174 6.68477C17.1446 5.67777 16.5395 4.98091 15.8133 4.49179C14.3223 3.4874 13.0546 3.00551 11.703 2.92909C11.0569 2.89269 10.5428 2.97178 10.0855 3.17826C9.79028 3.31168 9.79805 3.51154 9.82895 3.61882C9.89478 3.84732 10.117 3.83849 10.2498 3.83285C10.3479 3.8289 10.4522 3.82051 10.5687 3.80765C10.7448 3.78781 10.9207 3.76652 11.0967 3.74517L11.3156 3.71889C12.0114 3.72629 12.7268 3.89538 13.5664 4.25033C15.0612 4.88246 16.0944 5.77082 16.7249 6.96589C16.8286 7.16227 16.9251 7.36731 17.0185 7.56563C17.0834 7.70351 17.1483 7.84148 17.2161 7.97801C17.3902 8.2966 17.4696 8.65523 17.4454 9.01455C17.4183 9.26684 17.4902 9.51981 17.647 9.7236Z" fill="black"/>
</g>
<defs>
<clipPath id="clip0_9_543">
<rect width="22" height="19" fill="white" transform="translate(0.710541)"/>
</clipPath>
</defs>
</svg>
