<svg width="17" height="15" viewBox="0 0 17 15" fill="none" xmlns="http://www.w3.org/2000/svg">
<path d="M16.8818 9.14527C16.8229 7.76322 16.7632 6.55631 16.699 5.45562C16.6551 4.7008 16.5924 3.70745 16.4966 2.71798C16.3575 1.27415 15.1719 0.229168 13.6134 0.176767C12.4598 0.137846 11.286 0.121575 10.1504 0.105848C9.82663 0.101421 9.49783 0.104173 9.17976 0.106816C8.65795 0.111111 8.11834 0.115654 7.59039 0.0882313C6.39114 0.026447 5.11951 0.0781047 3.46855 0.256849C2.39452 0.373149 1.58641 0.682434 0.924759 1.23023C0.379479 1.68168 0.113687 2.20527 0.112338 2.83104C0.111866 3.03245 0.107742 3.23674 0.100051 3.43801C0.0933055 3.61524 0.0808314 3.79625 0.0688909 3.97142C0.0350943 4.3463 0.0260874 4.72295 0.0419133 5.09896C0.0520324 5.2557 0.0623736 5.41246 0.0729426 5.5692C0.154839 6.79734 0.239634 8.06699 0.153892 9.32025C0.118407 9.83712 0.128128 10.3643 0.137438 10.8736L0.13953 10.9864C0.155248 11.8609 0.285783 12.6295 0.538692 13.3361C0.811499 14.0985 1.34113 14.5622 2.11294 14.714C2.59047 14.8113 3.0751 14.8714 3.56232 14.8937C4.46912 14.93 5.39145 14.9502 6.28348 14.9697C6.64614 14.9777 7.00882 14.986 7.37142 14.9945H7.3727C7.38484 14.9943 7.39658 14.9905 7.40643 14.9835H7.69361C7.93322 14.9835 8.17298 14.9835 8.4128 14.9835L8.79328 14.9841C10.2954 14.9871 11.8482 14.99 13.3645 14.7573C13.8932 14.6761 14.5109 14.5628 15.0832 14.3374C16.2315 13.8853 16.8512 13.0518 16.9249 11.8599C16.9721 11.0938 16.9365 10.3227 16.9018 9.57696C16.8949 9.43304 16.8882 9.28919 16.8818 9.14527ZM1.12937 8.30983C1.11048 7.50994 1.06933 6.64959 0.999781 5.60243C0.944801 4.77552 0.911334 3.68531 1.14347 2.58034C1.14888 2.56525 1.15118 2.54926 1.15022 2.53329C1.09665 1.91261 1.54898 1.66952 2.02788 1.41214L2.04446 1.4033C2.50899 1.15352 3.02352 1.06628 3.51065 0.999079C4.61942 0.856222 5.73708 0.789977 6.85534 0.800841C7.32129 0.800841 7.78083 0.808433 8.23153 0.817685C9.05104 0.834601 9.88431 0.84557 10.69 0.856143C11.3932 0.865394 12.1202 0.874995 12.8352 0.888475C13.1666 0.89242 13.4973 0.920107 13.8245 0.971332C15.0008 1.16329 15.6514 1.91251 15.7059 3.13788C15.7507 4.14374 15.7918 5.16651 15.8315 6.15591C15.8615 6.8987 15.8919 7.64144 15.923 8.38423C15.9344 8.65205 15.9499 8.92403 15.9651 9.18703C15.9888 9.60003 16.0134 10.027 16.022 10.4468C16.0323 10.9437 16.0042 11.4518 15.9748 11.9295C15.9315 12.626 15.5178 13.1208 14.7452 13.4C14.2719 13.5628 13.7828 13.6772 13.2856 13.7414C11.6108 13.9859 9.8918 13.975 8.22971 13.9646L8.01013 13.9632C7.92392 13.9626 7.83777 13.9632 7.75155 13.9632H7.62884C7.61798 13.9632 7.60732 13.9657 7.59761 13.9705C7.58796 13.9753 7.57953 13.9822 7.57312 13.9907C7.20884 13.9816 6.84455 13.9728 6.48026 13.9644C5.41675 13.9388 4.31701 13.9123 3.23589 13.8775C2.95734 13.861 2.68051 13.8235 2.40788 13.7652L2.35803 13.7558C1.90105 13.6699 1.59524 13.3936 1.44926 12.9337C1.22753 12.215 1.11663 11.4678 1.12019 10.7169C1.11776 10.3736 1.12276 10.0243 1.12755 9.68613C1.13329 9.23467 1.14002 8.76862 1.12937 8.30963V8.30983Z" fill="black"/>
<path d="M4.86995 9.19386C5.05704 9.36071 5.24397 9.52769 5.43075 9.69474C6.13503 10.3241 6.86335 10.9748 7.58841 11.6054C7.7267 11.7336 7.90858 11.8067 8.09888 11.8107C8.29533 11.806 8.48273 11.7289 8.62379 11.5949C8.8261 11.4172 9.00083 11.2113 9.14236 10.984C9.68481 10.0935 10.2196 9.17879 10.7369 8.29419L10.8071 8.17406C10.8392 8.11122 10.8591 8.04309 10.8658 7.97318C10.8703 7.94556 10.8746 7.9178 10.8809 7.8913C10.884 7.87809 10.883 7.86428 10.8781 7.85166C10.8732 7.83897 10.8646 7.828 10.8532 7.8202L10.7775 7.76813C10.7661 7.76034 10.7526 7.75604 10.7387 7.75578C10.7249 7.75558 10.7113 7.75941 10.6997 7.76681C10.6699 7.78591 10.639 7.80375 10.6078 7.82159C10.5338 7.86078 10.4644 7.90796 10.401 7.96214C9.82189 8.48939 9.31027 9.08371 8.87751 9.73194C8.83319 9.79895 8.78495 9.86595 8.7382 9.93071C8.7382 9.87745 8.7382 9.82419 8.7382 9.77093L8.7351 8.66972C8.73058 7.03782 8.72545 5.40593 8.71965 3.77408C8.71857 3.63548 8.70643 3.49712 8.68343 3.36037C8.67837 3.31018 8.66292 3.26153 8.63816 3.21731C8.6134 3.17309 8.57974 3.13424 8.53926 3.10309C8.51248 3.086 8.48233 3.07473 8.45076 3.06999C8.41918 3.06524 8.38694 3.06715 8.35618 3.0756C8.2419 3.10362 8.1538 3.22391 8.07541 3.34966C8.04316 3.41414 8.0292 3.48588 8.03493 3.55745C8.03493 3.57635 8.03459 3.59503 8.03358 3.61301C8.02049 3.84002 8.00673 4.06687 7.99236 4.29361C7.95863 4.83546 7.92403 5.39532 7.90466 5.94708C7.86945 6.95866 7.84166 7.98745 7.81487 8.98227C7.80199 9.46049 7.78883 9.93871 7.77534 10.4168C7.77366 10.4527 7.77001 10.4884 7.76448 10.5239C7.7634 10.523 7.76226 10.5223 7.76111 10.5215C7.70424 10.481 7.65931 10.4488 7.61661 10.4136C7.31277 10.1625 7.0092 9.91141 6.70589 9.66031C6.296 9.32106 5.88588 8.98194 5.47555 8.64296C5.45531 8.62624 5.43474 8.6082 5.4141 8.59009C5.33907 8.511 5.24489 8.45166 5.14027 8.41763C5.06668 8.40071 4.99041 8.3982 4.91581 8.41016C4.84122 8.42212 4.76978 8.44842 4.70555 8.48747C4.55653 8.59716 4.54648 8.78926 4.67985 8.97705C4.73481 9.05602 4.79856 9.12871 4.86995 9.19386Z" fill="black"/>
</svg>
