<svg width="25" height="25" viewBox="0 0 25 25" fill="none" xmlns="http://www.w3.org/2000/svg">
<g clip-path="url(#clip0_9_329)">
<path d="M22.785 8.36052C22.413 7.9369 22.0181 7.5348 21.6022 7.15617C21.4597 7.02154 21.3174 6.8871 21.1771 6.75088C20.7906 6.37559 20.4026 6.00185 20.013 5.62967C19.3946 5.03655 18.7553 4.4233 18.1363 3.81012C17.3483 3.02995 16.2872 2.02777 15.0604 1.19577C14.2265 0.629851 13.3501 0.491955 12.4555 0.783751C12.0133 0.927813 11.5487 1.09153 11.1565 1.36317C9.99997 2.16389 9.00972 2.89699 8.12912 3.60409C7.05765 4.46459 5.97986 5.35398 4.93767 6.21408C4.11077 6.89646 3.25556 7.60216 2.4091 8.28911C1.54329 8.99155 1.00619 9.77135 0.767461 10.6729C0.590283 11.3151 0.48926 11.9766 0.466565 12.6434C0.451486 13.3259 0.470457 14.0193 0.488843 14.6898C0.504214 15.2548 0.520266 15.8391 0.515693 16.4127C0.514526 16.5671 0.513911 16.7218 0.513847 16.877C0.511999 17.7276 0.510149 18.6071 0.35654 19.4374C0.0646928 21.0134 0.658113 22.326 2.1194 23.3393C3.18376 24.0769 4.42713 24.2263 5.62945 24.3708C7.30427 24.5676 8.98903 24.6632 10.6749 24.657C11.5444 24.657 12.4509 24.6351 13.4064 24.5915L15.0602 24.5263C16.4514 24.4713 17.9277 24.4132 19.4036 24.3541C20.3115 24.3264 21.2108 24.165 22.0736 23.8749C22.9122 23.5875 23.5231 23.037 23.8388 22.2827C24.1458 21.5503 24.304 20.9166 24.3222 20.3451C24.4106 17.3876 24.3116 14.4274 24.0256 11.4829C23.9076 10.2453 23.4901 9.195 22.785 8.36052ZM9.01351 22.5737C9.03365 22.3553 9.05243 22.1488 9.05768 21.9428C9.08012 21.0106 9.1009 20.0783 9.12004 19.1458C9.13898 18.2621 9.15863 17.3785 9.17899 16.495C9.1931 15.9017 9.21421 15.4486 9.24767 15.0256C9.29836 14.3817 9.51753 14.1221 10.116 13.9949C10.7751 13.8431 11.4454 13.7471 12.12 13.708C12.6597 13.6881 13.2129 13.7114 13.7475 13.7346C14.0777 13.7487 14.4187 13.7635 14.7553 13.7677C15.0595 13.7717 15.2098 13.9067 15.2575 14.2206C15.2964 14.477 15.3431 14.7368 15.3882 14.9881C15.5089 15.5762 15.5859 16.1728 15.6185 16.7728C15.6574 18.1521 15.6499 19.5083 15.6421 20.9441C15.639 21.4934 15.637 22.048 15.6357 22.6079C13.4198 22.7708 11.2446 22.8322 8.99357 22.7977C8.99999 22.7206 9.0069 22.6466 9.01351 22.5737ZM17.3295 16.9952C17.2479 16.0013 17.0306 15.0058 16.8203 14.043L16.7539 13.7377C16.5615 12.8502 15.981 12.3223 15.0753 12.2111C12.875 11.941 11.1968 11.9857 9.63398 12.3566C8.27835 12.6784 7.56828 13.5072 7.46341 14.8903C7.39882 15.7424 7.40631 16.6123 7.41361 17.4535C7.41565 17.6874 7.41759 17.921 7.41818 18.1543C7.42032 19.0348 7.43092 19.9297 7.44114 20.7953C7.44717 21.3074 7.45268 21.8196 7.45767 22.3318C7.45845 22.4249 7.45009 22.5212 7.44026 22.6329C7.43763 22.6627 7.43491 22.6943 7.43219 22.7269C6.32122 22.6744 5.38643 22.5923 4.46566 22.3766C4.02244 22.2728 3.51365 22.1421 3.08424 21.9041C2.30365 21.4715 1.93913 20.8765 1.96978 20.0848C1.99517 19.4302 2.00246 18.7292 1.99205 17.9417C1.9726 16.4589 1.94341 14.9514 1.9153 13.4938L1.90197 12.7997C1.88563 11.9589 2.04673 11.2564 2.39432 10.6526C2.57273 10.3424 2.76856 10.0207 3.02607 9.79287C4.34162 8.62896 5.53994 7.60109 6.68924 6.64995C7.93786 5.61739 9.39457 4.42039 10.8834 3.29014C11.4071 2.89251 12.0021 2.5907 12.7354 2.25968C12.9373 2.16531 13.1566 2.11558 13.3788 2.11366C13.7348 2.11366 14.0913 2.24877 14.4557 2.52002C15.4807 3.28331 16.3939 4.20285 17.2769 5.09204C17.5114 5.32824 17.746 5.56456 17.983 5.79838C18.2055 6.01793 18.4275 6.23778 18.6494 6.45793C19.417 7.21845 20.2106 8.00496 21.0099 8.75863C21.7665 9.45172 22.2457 10.4055 22.3557 11.4369C22.4862 12.6004 22.5979 13.651 22.6446 14.7239C22.7092 16.2096 22.7442 17.8406 22.7517 19.71C22.7432 20.2266 22.6749 20.7403 22.5482 21.2403C22.5044 21.4743 22.3905 21.6884 22.2224 21.8535C22.0543 22.0187 21.8402 22.1266 21.6096 22.1624C21.4712 22.1897 21.333 22.2195 21.1947 22.2493C20.8353 22.3351 20.4708 22.3973 20.1035 22.4357C19.4935 22.4854 18.8837 22.5052 18.238 22.5268C17.9915 22.535 17.7408 22.5433 17.4845 22.5533C17.4795 22.4199 17.4743 22.2907 17.4692 22.1647C17.4563 21.8389 17.4438 21.5313 17.4372 21.2256C17.4275 20.7854 17.4247 20.337 17.4219 19.9033C17.4152 18.9486 17.409 17.9616 17.3295 16.9952Z" fill="black"/>
</g>
<defs>
<clipPath id="clip0_9_329">
<rect width="24.1261" height="24.1261" fill="white" transform="translate(0.236877 0.575623)"/>
</clipPath>
</defs>
</svg>
